<svg width="150" height="38" viewBox="0 0 150 38" fill="none" xmlns="http://www.w3.org/2000/svg">
<path d="M11.2207 26.222H14.3287C14.3847 26.782 14.4127 27.398 14.4127 28.07C14.4127 28.742 14.3987 29.358 14.3707 29.918C14.2867 31.822 13.8247 33.194 12.9847 34.034C12.1447 34.874 10.7447 35.294 8.7847 35.294C6.7687 35.294 5.3127 34.874 4.4167 34.034C3.5207 33.194 3.0307 31.822 2.9467 29.918C2.9187 28.518 2.8907 26.936 2.8627 25.172C2.8627 23.38 2.8627 21.588 2.8627 19.796C2.8907 18.004 2.9187 16.38 2.9467 14.924C3.0587 12.992 3.5627 11.606 4.4587 10.766C5.3547 9.926 6.7967 9.506 8.7847 9.506C10.6887 9.506 12.0747 9.926 12.9427 10.766C13.8107 11.578 14.2867 12.936 14.3707 14.84C14.3987 15.484 14.4127 16.562 14.4127 18.074C14.4407 19.586 14.4127 21.238 14.3287 23.03H6.0967C6.0967 24.178 6.1107 25.326 6.1387 26.474C6.1667 27.622 6.1807 28.868 6.1807 30.212C6.2087 31.192 6.4187 31.864 6.8107 32.228C7.2027 32.592 7.8467 32.774 8.7427 32.774C9.6107 32.774 10.2267 32.592 10.5907 32.228C10.9547 31.864 11.1647 31.192 11.2207 30.212C11.2487 29.204 11.2487 27.874 11.2207 26.222ZM8.7847 12.026C7.8607 12.026 7.2027 12.222 6.8107 12.614C6.4187 13.006 6.2087 13.65 6.1807 14.546C6.1807 15.694 6.1667 16.758 6.1387 17.738C6.1387 18.69 6.1247 19.642 6.0967 20.594H11.2627C11.2627 19.194 11.2627 17.962 11.2627 16.898C11.2627 15.834 11.2487 15.05 11.2207 14.546C11.1647 13.65 10.9407 13.006 10.5487 12.614C10.1847 12.222 9.5967 12.026 8.7847 12.026ZM16.9065 35V32.9L24.2985 12.278L17.0745 12.32V9.842L27.7845 9.8V11.942L20.3085 32.522H27.5325V35H16.9065ZM40.8698 35V12.362H38.8538V9.8H40.8698V6.44C40.8698 4.536 41.3178 3.164 42.2138 2.324C43.1098 1.484 44.5518 1.064 46.5398 1.064C46.9038 1.064 47.3238 1.092 47.7998 1.148C48.3038 1.204 48.7378 1.26 49.1018 1.316V3.794C48.7378 3.738 48.3318 3.71 47.8838 3.71C47.4638 3.682 47.0298 3.668 46.5818 3.668C45.6858 3.668 45.0418 3.864 44.6498 4.256C44.2858 4.62 44.1038 5.278 44.1038 6.23V9.8H48.4298V12.362H44.1038V35H40.8698ZM50.5718 4.928V1.4H55.2338V4.928H50.5718ZM51.3278 35V9.8H54.5618V35H51.3278ZM59.0131 35V9.8H62.2471V12.11H62.9191C63.3391 11.27 63.8291 10.626 64.3891 10.178C64.9771 9.73 65.7611 9.506 66.7411 9.506C68.1131 9.506 69.1491 9.912 69.8491 10.724C70.5491 11.536 70.9131 12.88 70.9411 14.756V35H67.7071V14.504C67.6791 13.608 67.4971 12.964 67.1611 12.572C66.8251 12.18 66.2931 11.984 65.5651 11.984C64.8371 11.984 64.1651 12.208 63.5491 12.656C62.9611 13.076 62.5271 13.664 62.2471 14.42V35H59.0131ZM78.4552 35.294C77.0552 35.294 76.0052 34.888 75.3052 34.076C74.6332 33.264 74.2412 32.032 74.1292 30.38C74.1012 30.044 74.0872 29.694 74.0872 29.33C74.0872 28.966 74.0872 28.616 74.0872 28.28C74.1992 26.768 74.5772 25.494 75.2212 24.458C75.8652 23.394 77.0132 22.414 78.6652 21.518C79.2532 21.182 79.8692 20.86 80.5132 20.552C81.1572 20.244 81.8152 19.95 82.4872 19.67V14.63C82.4872 13.734 82.3192 13.076 81.9832 12.656C81.6472 12.236 81.0312 12.026 80.1352 12.026C79.3512 12.026 78.7632 12.208 78.3712 12.572C78.0072 12.936 77.7972 13.594 77.7412 14.546C77.7412 15.022 77.7412 15.666 77.7412 16.478C77.7412 17.262 77.7412 17.948 77.7412 18.536H74.6332C74.6052 18.06 74.5772 17.472 74.5492 16.772C74.5492 16.044 74.5632 15.4 74.5912 14.84C74.6472 12.964 75.0952 11.606 75.9352 10.766C76.8032 9.926 78.2312 9.506 80.2192 9.506C82.3192 9.506 83.7472 9.968 84.5032 10.892C85.2872 11.788 85.6932 13.258 85.7212 15.302L85.6792 35H82.4872V32.69H81.9832C81.6472 33.53 81.2132 34.174 80.6812 34.622C80.1492 35.07 79.4072 35.294 78.4552 35.294ZM79.6312 32.858C80.9752 32.858 81.9272 32.074 82.4872 30.506V22.232C82.0112 22.428 81.5212 22.652 81.0172 22.904C80.5132 23.156 79.9532 23.506 79.3372 23.954C78.5532 24.486 78.0212 25.116 77.7412 25.844C77.4892 26.544 77.3352 27.356 77.2792 28.28C77.2792 28.532 77.2792 28.826 77.2792 29.162C77.2792 29.498 77.2932 29.834 77.3212 30.17C77.4612 31.962 78.2312 32.858 79.6312 32.858ZM90.0619 35V9.8H93.2959V12.11H93.9679C94.3879 11.27 94.8779 10.626 95.4379 10.178C96.0259 9.73 96.8099 9.506 97.7899 9.506C99.1619 9.506 100.198 9.912 100.898 10.724C101.598 11.536 101.962 12.88 101.99 14.756V35H98.7559V14.504C98.7279 13.608 98.5459 12.964 98.2099 12.572C97.8739 12.18 97.3419 11.984 96.6139 11.984C95.8859 11.984 95.2139 12.208 94.5979 12.656C94.0099 13.076 93.5759 13.664 93.2959 14.42V35H90.0619ZM106.183 29.918C106.155 28.518 106.127 26.936 106.099 25.172C106.099 23.38 106.099 21.588 106.099 19.796C106.127 18.004 106.155 16.394 106.183 14.966C106.295 13.006 106.785 11.606 107.653 10.766C108.549 9.926 109.977 9.506 111.937 9.506C113.925 9.506 115.353 9.926 116.221 10.766C117.117 11.578 117.593 12.936 117.649 14.84C117.649 15.372 117.649 15.974 117.649 16.646C117.649 17.318 117.635 17.948 117.607 18.536H114.415C114.471 17.864 114.485 17.15 114.457 16.394C114.457 15.638 114.457 15.022 114.457 14.546C114.429 13.594 114.219 12.936 113.827 12.572C113.435 12.208 112.805 12.026 111.937 12.026C111.069 12.026 110.439 12.208 110.047 12.572C109.655 12.936 109.445 13.594 109.417 14.546C109.389 16.45 109.361 18.242 109.333 19.922C109.333 21.574 109.333 23.226 109.333 24.878C109.361 26.53 109.389 28.308 109.417 30.212C109.445 31.192 109.655 31.864 110.047 32.228C110.439 32.592 111.083 32.774 111.979 32.774C112.847 32.774 113.463 32.592 113.827 32.228C114.219 31.864 114.429 31.192 114.457 30.212C114.457 29.68 114.457 29.092 114.457 28.448C114.485 27.776 114.471 27.034 114.415 26.222H117.607C117.635 26.782 117.649 27.398 117.649 28.07C117.649 28.742 117.649 29.358 117.649 29.918C117.565 31.822 117.089 33.194 116.221 34.034C115.353 34.874 113.939 35.294 111.979 35.294C109.991 35.294 108.549 34.874 107.653 34.034C106.757 33.194 106.267 31.822 106.183 29.918ZM129.469 26.222H132.577C132.633 26.782 132.661 27.398 132.661 28.07C132.661 28.742 132.647 29.358 132.619 29.918C132.535 31.822 132.073 33.194 131.233 34.034C130.393 34.874 128.993 35.294 127.033 35.294C125.017 35.294 123.561 34.874 122.665 34.034C121.769 33.194 121.279 31.822 121.195 29.918C121.167 28.518 121.139 26.936 121.111 25.172C121.111 23.38 121.111 21.588 121.111 19.796C121.139 18.004 121.167 16.38 121.195 14.924C121.307 12.992 121.811 11.606 122.707 10.766C123.603 9.926 125.045 9.506 127.033 9.506C128.937 9.506 130.323 9.926 131.191 10.766C132.059 11.578 132.535 12.936 132.619 14.84C132.647 15.484 132.661 16.562 132.661 18.074C132.689 19.586 132.661 21.238 132.577 23.03H124.345C124.345 24.178 124.359 25.326 124.387 26.474C124.415 27.622 124.429 28.868 124.429 30.212C124.457 31.192 124.667 31.864 125.059 32.228C125.451 32.592 126.095 32.774 126.991 32.774C127.859 32.774 128.475 32.592 128.839 32.228C129.203 31.864 129.413 31.192 129.469 30.212C129.497 29.204 129.497 27.874 129.469 26.222ZM127.033 12.026C126.109 12.026 125.451 12.222 125.059 12.614C124.667 13.006 124.457 13.65 124.429 14.546C124.429 15.694 124.415 16.758 124.387 17.738C124.387 18.69 124.373 19.642 124.345 20.594H129.511C129.511 19.194 129.511 17.962 129.511 16.898C129.511 15.834 129.497 15.05 129.469 14.546C129.413 13.65 129.189 13.006 128.797 12.614C128.433 12.222 127.845 12.026 127.033 12.026ZM141.66 35.294C139.728 35.294 138.356 34.874 137.544 34.034C136.76 33.194 136.34 31.822 136.284 29.918C136.256 29.358 136.242 28.742 136.242 28.07C136.27 27.398 136.298 26.782 136.326 26.222H139.224C139.168 27.034 139.14 27.776 139.14 28.448C139.168 29.092 139.182 29.68 139.182 30.212C139.21 31.192 139.406 31.864 139.77 32.228C140.162 32.592 140.792 32.774 141.66 32.774C142.584 32.774 143.242 32.592 143.634 32.228C144.054 31.864 144.278 31.192 144.306 30.212C144.306 29.736 144.306 29.26 144.306 28.784C144.306 28.28 144.306 27.818 144.306 27.398C144.278 26.418 144.152 25.676 143.928 25.172C143.704 24.64 143.256 24.262 142.584 24.038L140.442 23.366C138.958 22.862 137.894 22.176 137.25 21.308C136.606 20.412 136.27 19.04 136.242 17.192C136.214 16.8 136.2 16.436 136.2 16.1C136.228 15.736 136.242 15.358 136.242 14.966C136.27 13.006 136.69 11.606 137.502 10.766C138.314 9.926 139.756 9.506 141.828 9.506C143.76 9.506 145.118 9.926 145.902 10.766C146.686 11.578 147.106 12.936 147.162 14.84C147.162 15.372 147.162 15.974 147.162 16.646C147.162 17.318 147.148 17.948 147.12 18.536H144.138C144.166 17.864 144.18 17.15 144.18 16.394C144.18 15.638 144.18 15.022 144.18 14.546C144.152 13.594 143.97 12.936 143.634 12.572C143.298 12.208 142.696 12.026 141.828 12.026C140.932 12.026 140.316 12.208 139.98 12.572C139.644 12.936 139.448 13.594 139.392 14.546C139.392 14.994 139.378 15.414 139.35 15.806C139.35 16.17 139.35 16.548 139.35 16.94C139.378 17.92 139.476 18.718 139.644 19.334C139.84 19.95 140.344 20.384 141.156 20.636L143.13 21.224C144.558 21.644 145.608 22.302 146.28 23.198C146.98 24.094 147.33 25.438 147.33 27.23C147.33 27.65 147.33 28.112 147.33 28.616C147.33 29.092 147.316 29.54 147.288 29.96C147.232 31.864 146.784 33.236 145.944 34.076C145.104 34.888 143.676 35.294 141.66 35.294Z" fill="black"/>
<path d="M32 30H37V35H32V30Z" fill="#0265C1"/>
</svg>
