<svg width="1144" height="934" viewBox="0 0 1144 934" fill="none" xmlns="http://www.w3.org/2000/svg">
<g opacity="0.5">
<path opacity="0.5" d="M180.342 234.754C180.342 235.734 179.542 236.534 178.562 236.534C177.582 236.534 176.782 235.734 176.782 234.754C176.782 233.774 177.582 232.974 178.562 232.974C179.542 232.974 180.342 233.774 180.342 234.754Z" fill="white"/>
<path opacity="0.5" d="M193.873 236.534C194.856 236.534 195.653 235.737 195.653 234.754C195.653 233.771 194.856 232.974 193.873 232.974C192.889 232.974 192.093 233.771 192.093 234.754C192.093 235.737 192.889 236.534 193.873 236.534Z" fill="white"/>
<path opacity="0.5" d="M209.172 236.534C210.156 236.534 210.952 235.737 210.952 234.754C210.952 233.771 210.156 232.974 209.172 232.974C208.189 232.974 207.392 233.771 207.392 234.754C207.392 235.737 208.189 236.534 209.172 236.534Z" fill="white"/>
<path opacity="0.5" d="M226.263 234.754C226.263 235.734 225.463 236.534 224.483 236.534C223.503 236.534 222.703 235.734 222.703 234.754C222.703 233.774 223.503 232.974 224.483 232.974C225.463 232.974 226.263 233.774 226.263 234.754Z" fill="white"/>
<path opacity="0.5" d="M239.782 236.534C240.766 236.534 241.562 235.737 241.562 234.754C241.562 233.771 240.766 232.974 239.782 232.974C238.799 232.974 238.002 233.771 238.002 234.754C238.002 235.737 238.799 236.534 239.782 236.534Z" fill="white"/>
<path opacity="0.5" d="M255.092 236.534C256.076 236.534 256.872 235.737 256.872 234.754C256.872 233.771 256.076 232.974 255.092 232.974C254.109 232.974 253.312 233.771 253.312 234.754C253.312 235.737 254.109 236.534 255.092 236.534Z" fill="white"/>
<path opacity="0.5" d="M270.392 236.534C271.375 236.534 272.172 235.737 272.172 234.754C272.172 233.771 271.375 232.974 270.392 232.974C269.409 232.974 268.612 233.771 268.612 234.754C268.612 235.737 269.409 236.534 270.392 236.534Z" fill="white"/>
<path opacity="0.5" d="M285.702 236.534C286.686 236.534 287.482 235.737 287.482 234.754C287.482 233.771 286.686 232.974 285.702 232.974C284.719 232.974 283.922 233.771 283.922 234.754C283.922 235.737 284.719 236.534 285.702 236.534Z" fill="white"/>
<path opacity="0.5" d="M180.342 250.054C180.342 251.034 179.542 251.834 178.562 251.834C177.582 251.834 176.782 251.034 176.782 250.054C176.782 249.074 177.582 248.274 178.562 248.274C179.542 248.284 180.342 249.074 180.342 250.054Z" fill="white"/>
<path opacity="0.5" d="M193.873 251.834C194.856 251.834 195.653 251.037 195.653 250.054C195.653 249.071 194.856 248.274 193.873 248.274C192.889 248.274 192.093 249.071 192.093 250.054C192.093 251.037 192.889 251.834 193.873 251.834Z" fill="white"/>
<path opacity="0.5" d="M209.172 251.834C210.156 251.834 210.952 251.037 210.952 250.054C210.952 249.071 210.156 248.274 209.172 248.274C208.189 248.274 207.392 249.071 207.392 250.054C207.392 251.037 208.189 251.834 209.172 251.834Z" fill="white"/>
<path opacity="0.5" d="M226.263 250.054C226.263 251.034 225.463 251.834 224.483 251.834C223.503 251.834 222.703 251.034 222.703 250.054C222.703 249.074 223.503 248.274 224.483 248.274C225.463 248.284 226.263 249.074 226.263 250.054Z" fill="white"/>
<path opacity="0.5" d="M239.782 251.834C240.766 251.834 241.562 251.037 241.562 250.054C241.562 249.071 240.766 248.274 239.782 248.274C238.799 248.274 238.002 249.071 238.002 250.054C238.002 251.037 238.799 251.834 239.782 251.834Z" fill="white"/>
<path opacity="0.5" d="M255.092 251.834C256.076 251.834 256.872 251.037 256.872 250.054C256.872 249.071 256.076 248.274 255.092 248.274C254.109 248.274 253.312 249.071 253.312 250.054C253.312 251.037 254.109 251.834 255.092 251.834Z" fill="white"/>
<path opacity="0.5" d="M270.392 251.834C271.375 251.834 272.172 251.037 272.172 250.054C272.172 249.071 271.375 248.274 270.392 248.274C269.409 248.274 268.612 249.071 268.612 250.054C268.612 251.037 269.409 251.834 270.392 251.834Z" fill="white"/>
<path opacity="0.5" d="M285.702 251.834C286.686 251.834 287.482 251.037 287.482 250.054C287.482 249.071 286.686 248.274 285.702 248.274C284.719 248.274 283.922 249.071 283.922 250.054C283.922 251.037 284.719 251.834 285.702 251.834Z" fill="white"/>
<path opacity="0.5" d="M180.342 265.364C180.342 266.344 179.542 267.144 178.562 267.144C177.582 267.144 176.782 266.344 176.782 265.364C176.782 264.384 177.582 263.584 178.562 263.584C179.542 263.584 180.342 264.384 180.342 265.364Z" fill="white"/>
<path opacity="0.5" d="M193.873 267.144C194.856 267.144 195.653 266.347 195.653 265.364C195.653 264.381 194.856 263.584 193.873 263.584C192.889 263.584 192.093 264.381 192.093 265.364C192.093 266.347 192.889 267.144 193.873 267.144Z" fill="white"/>
<path opacity="0.5" d="M209.172 267.144C210.156 267.144 210.952 266.347 210.952 265.364C210.952 264.381 210.156 263.584 209.172 263.584C208.189 263.584 207.392 264.381 207.392 265.364C207.392 266.347 208.189 267.144 209.172 267.144Z" fill="white"/>
<path opacity="0.5" d="M226.263 265.364C226.263 266.344 225.463 267.144 224.483 267.144C223.503 267.144 222.703 266.344 222.703 265.364C222.703 264.384 223.503 263.584 224.483 263.584C225.463 263.584 226.263 264.384 226.263 265.364Z" fill="white"/>
<path opacity="0.5" d="M239.782 267.144C240.766 267.144 241.562 266.347 241.562 265.364C241.562 264.381 240.766 263.584 239.782 263.584C238.799 263.584 238.002 264.381 238.002 265.364C238.002 266.347 238.799 267.144 239.782 267.144Z" fill="white"/>
<path opacity="0.5" d="M255.092 267.144C256.076 267.144 256.872 266.347 256.872 265.364C256.872 264.381 256.076 263.584 255.092 263.584C254.109 263.584 253.312 264.381 253.312 265.364C253.312 266.347 254.109 267.144 255.092 267.144Z" fill="white"/>
<path opacity="0.5" d="M270.392 267.144C271.375 267.144 272.172 266.347 272.172 265.364C272.172 264.381 271.375 263.584 270.392 263.584C269.409 263.584 268.612 264.381 268.612 265.364C268.612 266.347 269.409 267.144 270.392 267.144Z" fill="white"/>
<path opacity="0.5" d="M285.702 267.144C286.686 267.144 287.482 266.347 287.482 265.364C287.482 264.381 286.686 263.584 285.702 263.584C284.719 263.584 283.922 264.381 283.922 265.364C283.922 266.347 284.719 267.144 285.702 267.144Z" fill="white"/>
<path opacity="0.5" d="M180.342 280.664C180.342 281.644 179.542 282.444 178.562 282.444C177.582 282.444 176.782 281.644 176.782 280.664C176.782 279.684 177.582 278.884 178.562 278.884C179.542 278.894 180.342 279.684 180.342 280.664Z" fill="white"/>
<path opacity="0.5" d="M193.873 282.444C194.856 282.444 195.653 281.647 195.653 280.664C195.653 279.68 194.856 278.884 193.873 278.884C192.889 278.884 192.093 279.68 192.093 280.664C192.093 281.647 192.889 282.444 193.873 282.444Z" fill="white"/>
<path opacity="0.5" d="M209.172 282.444C210.156 282.444 210.952 281.647 210.952 280.664C210.952 279.68 210.156 278.884 209.172 278.884C208.189 278.884 207.392 279.68 207.392 280.664C207.392 281.647 208.189 282.444 209.172 282.444Z" fill="white"/>
<path opacity="0.5" d="M226.263 280.664C226.263 281.644 225.463 282.444 224.483 282.444C223.503 282.444 222.703 281.644 222.703 280.664C222.703 279.684 223.503 278.884 224.483 278.884C225.463 278.894 226.263 279.684 226.263 280.664Z" fill="white"/>
<path opacity="0.5" d="M239.782 282.444C240.766 282.444 241.562 281.647 241.562 280.664C241.562 279.68 240.766 278.884 239.782 278.884C238.799 278.884 238.002 279.68 238.002 280.664C238.002 281.647 238.799 282.444 239.782 282.444Z" fill="white"/>
<path opacity="0.5" d="M255.092 282.444C256.076 282.444 256.872 281.647 256.872 280.664C256.872 279.68 256.076 278.884 255.092 278.884C254.109 278.884 253.312 279.68 253.312 280.664C253.312 281.647 254.109 282.444 255.092 282.444Z" fill="white"/>
<path opacity="0.5" d="M270.392 282.444C271.375 282.444 272.172 281.647 272.172 280.664C272.172 279.68 271.375 278.884 270.392 278.884C269.409 278.884 268.612 279.68 268.612 280.664C268.612 281.647 269.409 282.444 270.392 282.444Z" fill="white"/>
<path opacity="0.5" d="M285.702 282.444C286.686 282.444 287.482 281.647 287.482 280.664C287.482 279.68 286.686 278.884 285.702 278.884C284.719 278.884 283.922 279.68 283.922 280.664C283.922 281.647 284.719 282.444 285.702 282.444Z" fill="white"/>
<path opacity="0.5" d="M180.342 295.974C180.342 296.954 179.542 297.754 178.562 297.754C177.582 297.754 176.782 296.954 176.782 295.974C176.782 294.994 177.582 294.194 178.562 294.194C179.542 294.194 180.342 294.994 180.342 295.974Z" fill="white"/>
<path opacity="0.5" d="M193.873 297.754C194.856 297.754 195.653 296.957 195.653 295.974C195.653 294.991 194.856 294.194 193.873 294.194C192.889 294.194 192.093 294.991 192.093 295.974C192.093 296.957 192.889 297.754 193.873 297.754Z" fill="white"/>
<path opacity="0.5" d="M209.172 297.754C210.156 297.754 210.952 296.957 210.952 295.974C210.952 294.991 210.156 294.194 209.172 294.194C208.189 294.194 207.392 294.991 207.392 295.974C207.392 296.957 208.189 297.754 209.172 297.754Z" fill="white"/>
<path opacity="0.5" d="M226.263 295.974C226.263 296.954 225.463 297.754 224.483 297.754C223.503 297.754 222.703 296.954 222.703 295.974C222.703 294.994 223.503 294.194 224.483 294.194C225.463 294.194 226.263 294.994 226.263 295.974Z" fill="white"/>
<path opacity="0.5" d="M239.782 297.754C240.766 297.754 241.562 296.957 241.562 295.974C241.562 294.991 240.766 294.194 239.782 294.194C238.799 294.194 238.002 294.991 238.002 295.974C238.002 296.957 238.799 297.754 239.782 297.754Z" fill="white"/>
<path opacity="0.5" d="M255.092 297.754C256.076 297.754 256.872 296.957 256.872 295.974C256.872 294.991 256.076 294.194 255.092 294.194C254.109 294.194 253.312 294.991 253.312 295.974C253.312 296.957 254.109 297.754 255.092 297.754Z" fill="white"/>
<path opacity="0.5" d="M270.392 297.754C271.375 297.754 272.172 296.957 272.172 295.974C272.172 294.991 271.375 294.194 270.392 294.194C269.409 294.194 268.612 294.991 268.612 295.974C268.612 296.957 269.409 297.754 270.392 297.754Z" fill="white"/>
<path opacity="0.5" d="M285.702 297.754C286.686 297.754 287.482 296.957 287.482 295.974C287.482 294.991 286.686 294.194 285.702 294.194C284.719 294.194 283.922 294.991 283.922 295.974C283.922 296.957 284.719 297.754 285.702 297.754Z" fill="white"/>
<path opacity="0.5" d="M180.342 311.284C180.342 312.264 179.542 313.064 178.562 313.064C177.582 313.064 176.782 312.264 176.782 311.284C176.782 310.304 177.582 309.504 178.562 309.504C179.542 309.504 180.342 310.294 180.342 311.284Z" fill="white"/>
<path opacity="0.5" d="M193.873 313.064C194.856 313.064 195.653 312.267 195.653 311.284C195.653 310.301 194.856 309.504 193.873 309.504C192.889 309.504 192.093 310.301 192.093 311.284C192.093 312.267 192.889 313.064 193.873 313.064Z" fill="white"/>
<path opacity="0.5" d="M209.172 313.064C210.156 313.064 210.952 312.267 210.952 311.284C210.952 310.301 210.156 309.504 209.172 309.504C208.189 309.504 207.392 310.301 207.392 311.284C207.392 312.267 208.189 313.064 209.172 313.064Z" fill="white"/>
<path opacity="0.5" d="M226.263 311.284C226.263 312.264 225.463 313.064 224.483 313.064C223.503 313.064 222.703 312.264 222.703 311.284C222.703 310.304 223.503 309.504 224.483 309.504C225.463 309.504 226.263 310.294 226.263 311.284Z" fill="white"/>
<path opacity="0.5" d="M239.782 313.064C240.766 313.064 241.562 312.267 241.562 311.284C241.562 310.301 240.766 309.504 239.782 309.504C238.799 309.504 238.002 310.301 238.002 311.284C238.002 312.267 238.799 313.064 239.782 313.064Z" fill="white"/>
<path opacity="0.5" d="M255.092 313.064C256.076 313.064 256.872 312.267 256.872 311.284C256.872 310.301 256.076 309.504 255.092 309.504C254.109 309.504 253.312 310.301 253.312 311.284C253.312 312.267 254.109 313.064 255.092 313.064Z" fill="white"/>
<path opacity="0.5" d="M270.392 313.064C271.375 313.064 272.172 312.267 272.172 311.284C272.172 310.301 271.375 309.504 270.392 309.504C269.409 309.504 268.612 310.301 268.612 311.284C268.612 312.267 269.409 313.064 270.392 313.064Z" fill="white"/>
<path opacity="0.5" d="M285.702 313.064C286.686 313.064 287.482 312.267 287.482 311.284C287.482 310.301 286.686 309.504 285.702 309.504C284.719 309.504 283.922 310.301 283.922 311.284C283.922 312.267 284.719 313.064 285.702 313.064Z" fill="white"/>
</g>
<g opacity="0.5">
<path opacity="0.5" d="M788.232 502.614C789.215 502.614 790.012 501.817 790.012 500.834C790.012 499.851 789.215 499.054 788.232 499.054C787.249 499.054 786.452 499.851 786.452 500.834C786.452 501.817 787.249 502.614 788.232 502.614Z" fill="white"/>
<path opacity="0.5" d="M788.232 517.924C789.215 517.924 790.012 517.127 790.012 516.144C790.012 515.161 789.215 514.364 788.232 514.364C787.249 514.364 786.452 515.161 786.452 516.144C786.452 517.127 787.249 517.924 788.232 517.924Z" fill="white"/>
<path opacity="0.5" d="M788.232 533.224C789.215 533.224 790.012 532.427 790.012 531.444C790.012 530.461 789.215 529.664 788.232 529.664C787.249 529.664 786.452 530.461 786.452 531.444C786.452 532.427 787.249 533.224 788.232 533.224Z" fill="white"/>
<path opacity="0.5" d="M788.232 548.534C789.215 548.534 790.012 547.737 790.012 546.754C790.012 545.771 789.215 544.974 788.232 544.974C787.249 544.974 786.452 545.771 786.452 546.754C786.452 547.737 787.249 548.534 788.232 548.534Z" fill="white"/>
<path opacity="0.5" d="M788.232 563.834C789.215 563.834 790.012 563.037 790.012 562.054C790.012 561.071 789.215 560.274 788.232 560.274C787.249 560.274 786.452 561.071 786.452 562.054C786.452 563.037 787.249 563.834 788.232 563.834Z" fill="white"/>
<path opacity="0.5" d="M788.232 579.144C789.215 579.144 790.012 578.347 790.012 577.364C790.012 576.381 789.215 575.584 788.232 575.584C787.249 575.584 786.452 576.381 786.452 577.364C786.452 578.347 787.249 579.144 788.232 579.144Z" fill="white"/>
<path opacity="0.5" d="M788.232 594.444C789.215 594.444 790.012 593.647 790.012 592.664C790.012 591.681 789.215 590.884 788.232 590.884C787.249 590.884 786.452 591.681 786.452 592.664C786.452 593.647 787.249 594.444 788.232 594.444Z" fill="white"/>
<path opacity="0.5" d="M788.232 609.744C787.252 609.744 786.452 608.944 786.452 607.964C786.452 606.984 787.252 606.184 788.232 606.184C789.212 606.184 790.012 606.984 790.012 607.964C790.012 608.954 789.212 609.744 788.232 609.744Z" fill="white"/>
<path opacity="0.5" d="M772.932 502.614C771.952 502.614 771.152 501.814 771.152 500.834C771.152 499.854 771.952 499.054 772.932 499.054C773.912 499.054 774.712 499.854 774.712 500.834C774.702 501.814 773.912 502.614 772.932 502.614Z" fill="white"/>
<path opacity="0.5" d="M772.932 517.914C771.952 517.914 771.152 517.114 771.152 516.134C771.152 515.154 771.952 514.354 772.932 514.354C773.912 514.354 774.712 515.154 774.712 516.134C774.702 517.124 773.912 517.914 772.932 517.914Z" fill="white"/>
<path opacity="0.5" d="M772.932 533.224C771.952 533.224 771.152 532.424 771.152 531.444C771.152 530.464 771.952 529.664 772.932 529.664C773.912 529.664 774.712 530.464 774.712 531.444C774.702 532.424 773.912 533.224 772.932 533.224Z" fill="white"/>
<path opacity="0.5" d="M772.932 548.524C771.952 548.524 771.152 547.724 771.152 546.744C771.152 545.764 771.952 544.964 772.932 544.964C773.912 544.964 774.712 545.764 774.712 546.744C774.702 547.734 773.912 548.524 772.932 548.524Z" fill="white"/>
<path opacity="0.5" d="M772.932 563.834C771.952 563.834 771.152 563.034 771.152 562.054C771.152 561.074 771.952 560.274 772.932 560.274C773.912 560.274 774.712 561.074 774.712 562.054C774.702 563.034 773.912 563.834 772.932 563.834Z" fill="white"/>
<path opacity="0.5" d="M772.932 579.134C771.952 579.134 771.152 578.334 771.152 577.354C771.152 576.374 771.952 575.574 772.932 575.574C773.912 575.574 774.712 576.374 774.712 577.354C774.712 578.334 773.912 579.134 772.932 579.134Z" fill="white"/>
<path opacity="0.5" d="M772.932 594.444C771.952 594.444 771.152 593.644 771.152 592.664C771.152 591.684 771.952 590.884 772.932 590.884C773.912 590.884 774.712 591.684 774.712 592.664C774.712 593.644 773.912 594.444 772.932 594.444Z" fill="white"/>
<path opacity="0.5" d="M772.932 609.744C771.952 609.744 771.152 608.944 771.152 607.964C771.152 606.984 771.952 606.184 772.932 606.184C773.912 606.184 774.712 606.984 774.712 607.964C774.702 608.954 773.912 609.744 772.932 609.744Z" fill="white"/>
<path opacity="0.5" d="M757.622 502.614C758.605 502.614 759.402 501.817 759.402 500.834C759.402 499.851 758.605 499.054 757.622 499.054C756.639 499.054 755.842 499.851 755.842 500.834C755.842 501.817 756.639 502.614 757.622 502.614Z" fill="white"/>
<path opacity="0.5" d="M757.622 517.924C758.605 517.924 759.402 517.127 759.402 516.144C759.402 515.161 758.605 514.364 757.622 514.364C756.639 514.364 755.842 515.161 755.842 516.144C755.842 517.127 756.639 517.924 757.622 517.924Z" fill="white"/>
<path opacity="0.5" d="M757.622 533.224C758.605 533.224 759.402 532.427 759.402 531.444C759.402 530.461 758.605 529.664 757.622 529.664C756.639 529.664 755.842 530.461 755.842 531.444C755.842 532.427 756.639 533.224 757.622 533.224Z" fill="white"/>
<path opacity="0.5" d="M757.622 548.534C758.605 548.534 759.402 547.737 759.402 546.754C759.402 545.771 758.605 544.974 757.622 544.974C756.639 544.974 755.842 545.771 755.842 546.754C755.842 547.737 756.639 548.534 757.622 548.534Z" fill="white"/>
<path opacity="0.5" d="M757.622 563.834C758.605 563.834 759.402 563.037 759.402 562.054C759.402 561.071 758.605 560.274 757.622 560.274C756.639 560.274 755.842 561.071 755.842 562.054C755.842 563.037 756.639 563.834 757.622 563.834Z" fill="white"/>
<path opacity="0.5" d="M757.622 579.144C758.605 579.144 759.402 578.347 759.402 577.364C759.402 576.381 758.605 575.584 757.622 575.584C756.639 575.584 755.842 576.381 755.842 577.364C755.842 578.347 756.639 579.144 757.622 579.144Z" fill="white"/>
<path opacity="0.5" d="M757.622 594.444C758.605 594.444 759.402 593.647 759.402 592.664C759.402 591.681 758.605 590.884 757.622 590.884C756.639 590.884 755.842 591.681 755.842 592.664C755.842 593.647 756.639 594.444 757.622 594.444Z" fill="white"/>
<path opacity="0.5" d="M757.622 609.744C756.642 609.744 755.842 608.944 755.842 607.964C755.842 606.984 756.642 606.184 757.622 606.184C758.602 606.184 759.402 606.984 759.402 607.964C759.402 608.954 758.602 609.744 757.622 609.744Z" fill="white"/>
<path opacity="0.5" d="M742.312 502.614C743.296 502.614 744.092 501.817 744.092 500.834C744.092 499.851 743.296 499.054 742.312 499.054C741.329 499.054 740.532 499.851 740.532 500.834C740.532 501.817 741.329 502.614 742.312 502.614Z" fill="white"/>
<path opacity="0.5" d="M742.312 517.924C743.296 517.924 744.092 517.127 744.092 516.144C744.092 515.161 743.296 514.364 742.312 514.364C741.329 514.364 740.532 515.161 740.532 516.144C740.532 517.127 741.329 517.924 742.312 517.924Z" fill="white"/>
<path opacity="0.5" d="M742.312 533.224C743.296 533.224 744.092 532.427 744.092 531.444C744.092 530.461 743.296 529.664 742.312 529.664C741.329 529.664 740.532 530.461 740.532 531.444C740.532 532.427 741.329 533.224 742.312 533.224Z" fill="white"/>
<path opacity="0.5" d="M742.312 548.534C743.296 548.534 744.092 547.737 744.092 546.754C744.092 545.771 743.296 544.974 742.312 544.974C741.329 544.974 740.532 545.771 740.532 546.754C740.532 547.737 741.329 548.534 742.312 548.534Z" fill="white"/>
<path opacity="0.5" d="M742.312 563.834C743.296 563.834 744.092 563.037 744.092 562.054C744.092 561.071 743.296 560.274 742.312 560.274C741.329 560.274 740.532 561.071 740.532 562.054C740.532 563.037 741.329 563.834 742.312 563.834Z" fill="white"/>
<path opacity="0.5" d="M742.312 579.144C743.296 579.144 744.092 578.347 744.092 577.364C744.092 576.381 743.296 575.584 742.312 575.584C741.329 575.584 740.532 576.381 740.532 577.364C740.532 578.347 741.329 579.144 742.312 579.144Z" fill="white"/>
<path opacity="0.5" d="M742.312 594.444C743.296 594.444 744.092 593.647 744.092 592.664C744.092 591.681 743.296 590.884 742.312 590.884C741.329 590.884 740.532 591.681 740.532 592.664C740.532 593.647 741.329 594.444 742.312 594.444Z" fill="white"/>
<path opacity="0.5" d="M742.312 609.744C741.332 609.744 740.532 608.944 740.532 607.964C740.532 606.984 741.332 606.184 742.312 606.184C743.292 606.184 744.092 606.984 744.092 607.964C744.092 608.954 743.302 609.744 742.312 609.744Z" fill="white"/>
<path opacity="0.5" d="M727.012 502.614C727.996 502.614 728.792 501.817 728.792 500.834C728.792 499.851 727.996 499.054 727.012 499.054C726.029 499.054 725.232 499.851 725.232 500.834C725.232 501.817 726.029 502.614 727.012 502.614Z" fill="white"/>
<path opacity="0.5" d="M727.012 517.924C727.996 517.924 728.792 517.127 728.792 516.144C728.792 515.161 727.996 514.364 727.012 514.364C726.029 514.364 725.232 515.161 725.232 516.144C725.232 517.127 726.029 517.924 727.012 517.924Z" fill="white"/>
<path opacity="0.5" d="M727.012 533.224C727.996 533.224 728.792 532.427 728.792 531.444C728.792 530.461 727.996 529.664 727.012 529.664C726.029 529.664 725.232 530.461 725.232 531.444C725.232 532.427 726.029 533.224 727.012 533.224Z" fill="white"/>
<path opacity="0.5" d="M727.012 548.534C727.996 548.534 728.792 547.737 728.792 546.754C728.792 545.771 727.996 544.974 727.012 544.974C726.029 544.974 725.232 545.771 725.232 546.754C725.232 547.737 726.029 548.534 727.012 548.534Z" fill="white"/>
<path opacity="0.5" d="M727.012 563.834C727.996 563.834 728.792 563.037 728.792 562.054C728.792 561.071 727.996 560.274 727.012 560.274C726.029 560.274 725.232 561.071 725.232 562.054C725.232 563.037 726.029 563.834 727.012 563.834Z" fill="white"/>
<path opacity="0.5" d="M727.012 579.144C727.996 579.144 728.792 578.347 728.792 577.364C728.792 576.381 727.996 575.584 727.012 575.584C726.029 575.584 725.232 576.381 725.232 577.364C725.232 578.347 726.029 579.144 727.012 579.144Z" fill="white"/>
<path opacity="0.5" d="M727.012 594.444C727.996 594.444 728.792 593.647 728.792 592.664C728.792 591.681 727.996 590.884 727.012 590.884C726.029 590.884 725.232 591.681 725.232 592.664C725.232 593.647 726.029 594.444 727.012 594.444Z" fill="white"/>
<path opacity="0.5" d="M727.012 609.744C726.032 609.744 725.232 608.944 725.232 607.964C725.232 606.984 726.032 606.184 727.012 606.184C727.992 606.184 728.792 606.984 728.792 607.964C728.792 608.954 727.992 609.744 727.012 609.744Z" fill="white"/>
<path opacity="0.5" d="M711.702 502.614C712.685 502.614 713.482 501.817 713.482 500.834C713.482 499.851 712.685 499.054 711.702 499.054C710.719 499.054 709.922 499.851 709.922 500.834C709.922 501.817 710.719 502.614 711.702 502.614Z" fill="white"/>
<path opacity="0.5" d="M711.702 517.924C712.685 517.924 713.482 517.127 713.482 516.144C713.482 515.161 712.685 514.364 711.702 514.364C710.719 514.364 709.922 515.161 709.922 516.144C709.922 517.127 710.719 517.924 711.702 517.924Z" fill="white"/>
<path opacity="0.5" d="M711.702 533.224C712.685 533.224 713.482 532.427 713.482 531.444C713.482 530.461 712.685 529.664 711.702 529.664C710.719 529.664 709.922 530.461 709.922 531.444C709.922 532.427 710.719 533.224 711.702 533.224Z" fill="white"/>
<path opacity="0.5" d="M711.702 548.534C712.685 548.534 713.482 547.737 713.482 546.754C713.482 545.771 712.685 544.974 711.702 544.974C710.719 544.974 709.922 545.771 709.922 546.754C709.922 547.737 710.719 548.534 711.702 548.534Z" fill="white"/>
<path opacity="0.5" d="M711.702 563.834C712.685 563.834 713.482 563.037 713.482 562.054C713.482 561.071 712.685 560.274 711.702 560.274C710.719 560.274 709.922 561.071 709.922 562.054C709.922 563.037 710.719 563.834 711.702 563.834Z" fill="white"/>
<path opacity="0.5" d="M711.702 579.144C712.685 579.144 713.482 578.347 713.482 577.364C713.482 576.381 712.685 575.584 711.702 575.584C710.719 575.584 709.922 576.381 709.922 577.364C709.922 578.347 710.719 579.144 711.702 579.144Z" fill="white"/>
<path opacity="0.5" d="M711.702 594.444C712.685 594.444 713.482 593.647 713.482 592.664C713.482 591.681 712.685 590.884 711.702 590.884C710.719 590.884 709.922 591.681 709.922 592.664C709.922 593.647 710.719 594.444 711.702 594.444Z" fill="white"/>
<path opacity="0.5" d="M711.702 609.744C710.722 609.744 709.922 608.944 709.922 607.964C709.922 606.984 710.722 606.184 711.702 606.184C712.682 606.184 713.482 606.984 713.482 607.964C713.482 608.954 712.682 609.744 711.702 609.744Z" fill="white"/>
</g>
<g opacity="0.5">
<path opacity="0.5" d="M592.842 271.674C592.842 272.654 592.042 273.454 591.062 273.454C590.082 273.454 589.282 272.654 589.282 271.674C589.282 270.694 590.082 269.894 591.062 269.894C592.042 269.894 592.842 270.694 592.842 271.674Z" fill="white"/>
<path opacity="0.5" d="M608.153 271.674C608.153 272.654 607.352 273.454 606.372 273.454C605.392 273.454 604.593 272.654 604.593 271.674C604.593 270.694 605.392 269.894 606.372 269.894C607.352 269.904 608.153 270.694 608.153 271.674Z" fill="white"/>
<path opacity="0.5" d="M623.452 271.674C623.452 272.654 622.652 273.454 621.672 273.454C620.692 273.454 619.892 272.654 619.892 271.674C619.892 270.694 620.692 269.894 621.672 269.894C622.652 269.894 623.452 270.694 623.452 271.674Z" fill="white"/>
<path opacity="0.5" d="M592.842 286.984C592.842 287.964 592.042 288.764 591.062 288.764C590.082 288.764 589.282 287.964 589.282 286.984C589.282 286.004 590.082 285.204 591.062 285.204C592.042 285.204 592.842 286.004 592.842 286.984Z" fill="white"/>
<path opacity="0.5" d="M608.153 286.984C608.153 287.964 607.352 288.764 606.372 288.764C605.392 288.764 604.593 287.964 604.593 286.984C604.593 286.004 605.392 285.204 606.372 285.204C607.352 285.204 608.153 286.004 608.153 286.984Z" fill="white"/>
<path opacity="0.5" d="M623.452 286.984C623.452 287.964 622.652 288.764 621.672 288.764C620.692 288.764 619.892 287.964 619.892 286.984C619.892 286.004 620.692 285.204 621.672 285.204C622.652 285.204 623.452 286.004 623.452 286.984Z" fill="white"/>
<path opacity="0.5" d="M592.842 302.284C592.842 303.264 592.042 304.064 591.062 304.064C590.082 304.064 589.282 303.264 589.282 302.284C589.282 301.304 590.082 300.504 591.062 300.504C592.042 300.504 592.842 301.304 592.842 302.284Z" fill="white"/>
<path opacity="0.5" d="M608.153 302.284C608.153 303.264 607.352 304.064 606.372 304.064C605.392 304.064 604.593 303.264 604.593 302.284C604.593 301.304 605.392 300.504 606.372 300.504C607.352 300.514 608.153 301.304 608.153 302.284Z" fill="white"/>
<path opacity="0.5" d="M623.452 302.284C623.452 303.264 622.652 304.064 621.672 304.064C620.692 304.064 619.892 303.264 619.892 302.284C619.892 301.304 620.692 300.504 621.672 300.504C622.652 300.504 623.452 301.304 623.452 302.284Z" fill="white"/>
</g>
<g opacity="0.5">
<path opacity="0.5" d="M449.942 407.664C449.942 408.644 449.142 409.444 448.162 409.444C447.182 409.444 446.382 408.644 446.382 407.664C446.382 406.684 447.182 405.884 448.162 405.884C449.152 405.884 449.942 406.674 449.942 407.664Z" fill="white"/>
<path opacity="0.5" d="M463.472 409.444C464.455 409.444 465.252 408.647 465.252 407.664C465.252 406.68 464.455 405.884 463.472 405.884C462.489 405.884 461.692 406.68 461.692 407.664C461.692 408.647 462.489 409.444 463.472 409.444Z" fill="white"/>
<path opacity="0.5" d="M478.772 409.444C479.756 409.444 480.552 408.647 480.552 407.664C480.552 406.68 479.756 405.884 478.772 405.884C477.789 405.884 476.992 406.68 476.992 407.664C476.992 408.647 477.789 409.444 478.772 409.444Z" fill="white"/>
<path opacity="0.5" d="M449.942 422.964C449.942 423.944 449.142 424.744 448.162 424.744C447.182 424.744 446.382 423.944 446.382 422.964C446.382 421.984 447.182 421.184 448.162 421.184C449.152 421.184 449.942 421.984 449.942 422.964Z" fill="white"/>
<path opacity="0.5" d="M463.472 424.744C464.455 424.744 465.252 423.947 465.252 422.964C465.252 421.981 464.455 421.184 463.472 421.184C462.489 421.184 461.692 421.981 461.692 422.964C461.692 423.947 462.489 424.744 463.472 424.744Z" fill="white"/>
<path opacity="0.5" d="M478.772 424.744C479.756 424.744 480.552 423.947 480.552 422.964C480.552 421.981 479.756 421.184 478.772 421.184C477.789 421.184 476.992 421.981 476.992 422.964C476.992 423.947 477.789 424.744 478.772 424.744Z" fill="white"/>
<path opacity="0.5" d="M449.942 438.274C449.942 439.254 449.142 440.054 448.162 440.054C447.182 440.054 446.382 439.254 446.382 438.274C446.382 437.294 447.182 436.494 448.162 436.494C449.152 436.494 449.942 437.294 449.942 438.274Z" fill="white"/>
<path opacity="0.5" d="M465.252 438.274C465.252 439.254 464.452 440.054 463.472 440.054C462.492 440.054 461.692 439.254 461.692 438.274C461.692 437.294 462.492 436.494 463.472 436.494C464.452 436.494 465.252 437.294 465.252 438.274Z" fill="white"/>
<path opacity="0.5" d="M480.552 438.274C480.552 439.254 479.752 440.054 478.772 440.054C477.792 440.054 476.992 439.254 476.992 438.274C476.992 437.294 477.792 436.494 478.772 436.494C479.762 436.494 480.552 437.294 480.552 438.274Z" fill="white"/>
</g>
<g opacity="0.5">
<path opacity="0.5" d="M736.443 212.694L671.963 277.174" stroke="#9DADE3" stroke-width="2.1221" stroke-miterlimit="10"/>
<path opacity="0.5" d="M732.252 208.504L667.772 272.984" stroke="#9DADE3" stroke-width="2.1221" stroke-miterlimit="10"/>
<path opacity="0.5" d="M728.062 204.313L663.583 268.793" stroke="#9DADE3" stroke-width="2.1221" stroke-miterlimit="10"/>
<path opacity="0.5" d="M723.873 200.124L659.393 264.604" stroke="#9DADE3" stroke-width="2.1221" stroke-miterlimit="10"/>
<path opacity="0.5" d="M719.682 195.934L655.203 260.414" stroke="#9DADE3" stroke-width="2.1221" stroke-miterlimit="10"/>
<path opacity="0.5" d="M715.492 191.744L651.012 256.224" stroke="#9DADE3" stroke-width="2.1221" stroke-miterlimit="10"/>
<path opacity="0.5" d="M711.302 187.553L646.823 252.033" stroke="#9DADE3" stroke-width="2.1221" stroke-miterlimit="10"/>
<path opacity="0.5" d="M707.113 183.364L642.633 247.844" stroke="#9DADE3" stroke-width="2.1221" stroke-miterlimit="10"/>
<path opacity="0.5" d="M702.922 179.174L638.443 243.654" stroke="#9DADE3" stroke-width="2.1221" stroke-miterlimit="10"/>
<path opacity="0.5" d="M698.732 174.984L634.252 239.464" stroke="#9DADE3" stroke-width="2.1221" stroke-miterlimit="10"/>
<path opacity="0.5" d="M694.542 170.793L630.062 235.273" stroke="#9DADE3" stroke-width="2.1221" stroke-miterlimit="10"/>
<path opacity="0.5" d="M690.353 166.614L625.883 231.084" stroke="#9DADE3" stroke-width="2.1221" stroke-miterlimit="10"/>
<path opacity="0.5" d="M686.172 162.424L621.693 226.904" stroke="#9DADE3" stroke-width="2.1221" stroke-miterlimit="10"/>
<path opacity="0.5" d="M681.982 158.234L617.502 222.714" stroke="#9DADE3" stroke-width="2.1221" stroke-miterlimit="10"/>
<path opacity="0.5" d="M677.792 154.043L613.312 218.523" stroke="#9DADE3" stroke-width="2.1221" stroke-miterlimit="10"/>
<path opacity="0.5" d="M673.603 149.854L609.123 214.334" stroke="#9DADE3" stroke-width="2.1221" stroke-miterlimit="10"/>
<path opacity="0.5" d="M669.413 145.664L604.932 210.144" stroke="#9DADE3" stroke-width="2.1221" stroke-miterlimit="10"/>
<path opacity="0.5" d="M665.222 141.474L600.742 205.954" stroke="#9DADE3" stroke-width="2.1221" stroke-miterlimit="10"/>
<path opacity="0.5" d="M661.033 137.284L596.552 201.764" stroke="#9DADE3" stroke-width="2.1221" stroke-miterlimit="10"/>
<path opacity="0.5" d="M656.843 133.094L592.363 197.574" stroke="#9DADE3" stroke-width="2.1221" stroke-miterlimit="10"/>
<path opacity="0.5" d="M652.653 128.904L588.172 193.384" stroke="#9DADE3" stroke-width="2.1221" stroke-miterlimit="10"/>
</g>
<g opacity="0.5">
<path opacity="0.5" d="M609.962 734.654L545.492 799.134" stroke="#9DADE3" stroke-width="2.1221" stroke-miterlimit="10"/>
<path opacity="0.5" d="M605.783 730.464L541.302 794.944" stroke="#9DADE3" stroke-width="2.1221" stroke-miterlimit="10"/>
<path opacity="0.5" d="M601.593 726.284L537.113 790.754" stroke="#9DADE3" stroke-width="2.1221" stroke-miterlimit="10"/>
<path opacity="0.5" d="M597.403 722.094L532.922 786.573" stroke="#9DADE3" stroke-width="2.1221" stroke-miterlimit="10"/>
<path opacity="0.5" d="M593.212 717.904L528.732 782.384" stroke="#9DADE3" stroke-width="2.1221" stroke-miterlimit="10"/>
<path opacity="0.5" d="M589.023 713.714L524.542 778.194" stroke="#9DADE3" stroke-width="2.1221" stroke-miterlimit="10"/>
<path opacity="0.5" d="M584.833 709.523L520.353 774.003" stroke="#9DADE3" stroke-width="2.1221" stroke-miterlimit="10"/>
<path opacity="0.5" d="M580.643 705.333L516.163 769.813" stroke="#9DADE3" stroke-width="2.1221" stroke-miterlimit="10"/>
<path opacity="0.5" d="M576.453 701.144L511.973 765.624" stroke="#9DADE3" stroke-width="2.1221" stroke-miterlimit="10"/>
<path opacity="0.5" d="M572.262 696.954L507.782 761.434" stroke="#9DADE3" stroke-width="2.1221" stroke-miterlimit="10"/>
<path opacity="0.5" d="M568.073 692.764L503.593 757.244" stroke="#9DADE3" stroke-width="2.1221" stroke-miterlimit="10"/>
<path opacity="0.5" d="M563.883 688.573L499.403 753.053" stroke="#9DADE3" stroke-width="2.1221" stroke-miterlimit="10"/>
<path opacity="0.5" d="M559.693 684.384L495.213 748.864" stroke="#9DADE3" stroke-width="2.1221" stroke-miterlimit="10"/>
<path opacity="0.5" d="M555.502 680.194L491.022 744.674" stroke="#9DADE3" stroke-width="2.1221" stroke-miterlimit="10"/>
<path opacity="0.5" d="M551.312 676.003L486.833 740.483" stroke="#9DADE3" stroke-width="2.1221" stroke-miterlimit="10"/>
<path opacity="0.5" d="M547.123 671.813L482.643 736.293" stroke="#9DADE3" stroke-width="2.1221" stroke-miterlimit="10"/>
<path opacity="0.5" d="M542.932 667.624L478.453 732.104" stroke="#9DADE3" stroke-width="2.1221" stroke-miterlimit="10"/>
<path opacity="0.5" d="M538.742 663.434L474.272 727.914" stroke="#9DADE3" stroke-width="2.1221" stroke-miterlimit="10"/>
<path opacity="0.5" d="M534.562 659.253L470.083 723.723" stroke="#9DADE3" stroke-width="2.1221" stroke-miterlimit="10"/>
<path opacity="0.5" d="M530.373 655.063L465.893 719.534" stroke="#9DADE3" stroke-width="2.1221" stroke-miterlimit="10"/>
<path opacity="0.5" d="M526.182 650.874L461.703 715.354" stroke="#9DADE3" stroke-width="2.1221" stroke-miterlimit="10"/>
</g>
<g opacity="0.8">
<path opacity="0.8" d="M527.692 300.019C582.74 244.971 582.74 155.721 527.692 100.673C472.644 45.6251 383.394 45.6251 328.347 100.673C273.299 155.721 273.299 244.971 328.347 300.019C383.394 355.066 472.644 355.066 527.692 300.019Z" stroke="#5178A6" stroke-width="0.5" stroke-miterlimit="10"/>
<path opacity="0.8" d="M522.672 294.998C574.947 242.723 574.947 157.968 522.672 105.693C470.397 53.4182 385.642 53.4182 333.367 105.693C281.092 157.968 281.092 242.723 333.367 294.998C385.642 347.273 470.397 347.273 522.672 294.998Z" stroke="#5178A6" stroke-width="0.6562" stroke-miterlimit="10"/>
<path opacity="0.8" d="M428.021 327.094C498.023 327.094 554.771 270.346 554.771 200.344C554.771 130.342 498.023 73.5938 428.021 73.5938C358.019 73.5938 301.271 130.342 301.271 200.344C301.271 270.346 358.019 327.094 428.021 327.094Z" stroke="#5178A6" stroke-width="0.8125" stroke-miterlimit="10"/>
<path opacity="0.8" d="M428.021 319.994C494.102 319.994 547.671 266.424 547.671 200.344C547.671 134.263 494.102 80.6936 428.021 80.6936C361.94 80.6936 308.371 134.263 308.371 200.344C308.371 266.424 361.94 319.994 428.021 319.994Z" stroke="#5178A6" stroke-width="0.9688" stroke-miterlimit="10"/>
<path opacity="0.8" d="M507.603 279.93C551.556 235.977 551.556 164.715 507.603 120.762C463.65 76.8085 392.388 76.8085 348.435 120.762C304.482 164.715 304.482 235.977 348.435 279.93C392.388 323.883 463.65 323.883 507.603 279.93Z" stroke="#5178A6" stroke-width="1.125" stroke-miterlimit="10"/>
<path opacity="0.8" d="M502.583 274.909C543.763 233.729 543.763 166.962 502.583 125.782C461.403 84.6016 394.636 84.6016 353.456 125.782C312.275 166.962 312.275 233.729 353.456 274.909C394.636 316.09 461.403 316.09 502.583 274.909Z" stroke="#5178A6" stroke-width="1.2812" stroke-miterlimit="10"/>
<path opacity="0.8" d="M497.563 269.889C535.97 231.481 535.97 169.21 497.563 130.802C459.155 92.3947 396.884 92.3947 358.476 130.802C320.068 169.21 320.068 231.481 358.476 269.889C396.884 308.297 459.155 308.297 497.563 269.889Z" stroke="#5178A6" stroke-width="1.4375" stroke-miterlimit="10"/>
<path opacity="0.8" d="M492.542 264.869C528.177 229.234 528.177 171.458 492.542 135.823C456.907 100.188 399.132 100.188 363.497 135.823C327.862 171.458 327.862 229.234 363.497 264.869C399.132 300.504 456.907 300.504 492.542 264.869Z" stroke="#5178A6" stroke-width="1.5938" stroke-miterlimit="10"/>
<path opacity="0.8" d="M511.112 213.77C518.515 167.89 487.324 124.695 441.444 117.292C395.564 109.889 352.37 141.08 344.966 186.96C337.563 232.84 368.754 276.034 414.634 283.438C460.514 290.841 503.709 259.65 511.112 213.77Z" stroke="#5178A6" stroke-width="1.75" stroke-miterlimit="10"/>
<path opacity="0.8" d="M428.021 277.394C470.574 277.394 505.071 242.897 505.071 200.344C505.071 157.79 470.574 123.294 428.021 123.294C385.467 123.294 350.971 157.79 350.971 200.344C350.971 242.897 385.467 277.394 428.021 277.394Z" stroke="#5178A6" stroke-width="1.9062" stroke-miterlimit="10"/>
<path opacity="0.8" d="M477.481 249.807C504.798 222.49 504.798 178.201 477.481 150.884C450.164 123.567 405.875 123.567 378.558 150.884C351.241 178.201 351.241 222.49 378.558 249.807C405.875 277.124 450.164 277.124 477.481 249.807Z" stroke="#5178A6" stroke-width="2.0625" stroke-miterlimit="10"/>
<path opacity="0.8" d="M472.453 244.78C496.994 220.24 496.994 180.452 472.454 155.912C447.913 131.371 408.125 131.371 383.585 155.912C359.045 180.452 359.045 220.24 383.585 244.78C408.125 269.32 447.913 269.32 472.453 244.78Z" stroke="#5178A6" stroke-width="2.2188" stroke-miterlimit="10"/>
<path opacity="0.8" d="M467.433 239.759C489.201 217.992 489.201 182.7 467.433 160.932C445.666 139.164 410.373 139.164 388.606 160.932C366.838 182.7 366.838 217.992 388.606 239.759C410.373 261.527 445.666 261.527 467.433 239.759Z" stroke="#5178A6" stroke-width="2.375" stroke-miterlimit="10"/>
<path opacity="0.8" d="M462.413 234.739C481.408 215.744 481.408 184.947 462.413 165.952C443.418 146.957 412.621 146.957 393.626 165.952C374.631 184.947 374.631 215.744 393.626 234.739C412.621 253.734 443.418 253.734 462.413 234.739Z" stroke="#5178A6" stroke-width="2.5312" stroke-miterlimit="10"/>
<path opacity="0.8" d="M469.261 205.207C471.95 182.424 455.66 161.774 432.876 159.085C410.092 156.397 389.443 172.687 386.754 195.47C384.065 218.254 400.356 238.903 423.139 241.592C445.923 244.281 466.572 227.991 469.261 205.207Z" stroke="#5178A6" stroke-width="2.6875" stroke-miterlimit="10"/>
<path opacity="0.8" d="M428.021 234.784C447.041 234.784 462.461 219.364 462.461 200.344C462.461 181.323 447.041 165.904 428.021 165.904C409 165.904 393.581 181.323 393.581 200.344C393.581 219.364 409 234.784 428.021 234.784Z" stroke="#5178A6" stroke-width="2.8438" stroke-miterlimit="10"/>
<path opacity="0.8" d="M455.295 202.542C456.494 187.491 445.264 174.317 430.213 173.118C415.162 171.919 401.989 183.149 400.79 198.2C399.591 213.251 410.82 226.425 425.871 227.623C440.923 228.822 454.096 217.593 455.295 202.542Z" stroke="#5178A6" stroke-width="3" stroke-miterlimit="10"/>
</g>
<g opacity="0.79">
<path opacity="0.79" d="M649.883 519.891C685.9 483.873 685.9 425.477 649.883 389.459C613.865 353.442 555.469 353.441 519.451 389.459C483.433 425.477 483.433 483.873 519.451 519.891C555.469 555.909 613.865 555.909 649.883 519.891Z" stroke="#5178A6" stroke-width="0.5" stroke-miterlimit="10"/>
<path opacity="0.79" d="M645.286 515.295C678.766 481.815 678.766 427.535 645.286 394.055C611.807 360.576 557.526 360.576 524.047 394.055C490.568 427.535 490.568 481.815 524.047 515.295C557.526 548.774 611.807 548.774 645.286 515.295Z" stroke="#5178A6" stroke-width="0.7273" stroke-miterlimit="10"/>
<path opacity="0.79" d="M584.671 533.904C628.428 533.904 663.901 498.431 663.901 454.674C663.901 410.916 628.428 375.444 584.671 375.444C540.913 375.444 505.441 410.916 505.441 454.674C505.441 498.431 540.913 533.904 584.671 533.904Z" stroke="#5178A6" stroke-width="0.9545" stroke-miterlimit="10"/>
<path opacity="0.79" d="M584.671 527.414C624.844 527.414 657.411 494.847 657.411 454.674C657.411 414.501 624.844 381.934 584.671 381.934C544.497 381.934 511.931 414.501 511.931 454.674C511.931 494.847 544.497 527.414 584.671 527.414Z" stroke="#5178A6" stroke-width="1.1818" stroke-miterlimit="10"/>
<path opacity="0.79" d="M584.671 520.914C621.254 520.914 650.911 491.257 650.911 454.674C650.911 418.091 621.254 388.434 584.671 388.434C548.087 388.434 518.431 418.091 518.431 454.674C518.431 491.257 548.087 520.914 584.671 520.914Z" stroke="#5178A6" stroke-width="1.4091" stroke-miterlimit="10"/>
<path opacity="0.79" d="M584.671 514.414C617.664 514.414 644.411 487.667 644.411 454.674C644.411 421.68 617.664 394.934 584.671 394.934C551.677 394.934 524.931 421.68 524.931 454.674C524.931 487.667 551.677 514.414 584.671 514.414Z" stroke="#5178A6" stroke-width="1.6364" stroke-miterlimit="10"/>
<path opacity="0.79" d="M584.671 507.914C614.074 507.914 637.911 484.077 637.911 454.674C637.911 425.27 614.074 401.434 584.671 401.434C555.267 401.434 531.431 425.27 531.431 454.674C531.431 484.077 555.267 507.914 584.671 507.914Z" stroke="#5178A6" stroke-width="1.8636" stroke-miterlimit="10"/>
<path opacity="0.79" d="M584.671 501.414C610.484 501.414 631.411 480.488 631.411 454.674C631.411 428.86 610.484 407.934 584.671 407.934C558.857 407.934 537.931 428.86 537.931 454.674C537.931 480.488 558.857 501.414 584.671 501.414Z" stroke="#5178A6" stroke-width="2.0909" stroke-miterlimit="10"/>
<path opacity="0.79" d="M584.671 494.914C606.895 494.914 624.911 476.898 624.911 454.674C624.911 432.45 606.895 414.434 584.671 414.434C562.447 414.434 544.431 432.45 544.431 454.674C544.431 476.898 562.447 494.914 584.671 494.914Z" stroke="#5178A6" stroke-width="2.3182" stroke-miterlimit="10"/>
<path opacity="0.79" d="M584.671 488.414C603.305 488.414 618.411 473.308 618.411 454.674C618.411 436.04 603.305 420.934 584.671 420.934C566.037 420.934 550.931 436.04 550.931 454.674C550.931 473.308 566.037 488.414 584.671 488.414Z" stroke="#5178A6" stroke-width="2.5454" stroke-miterlimit="10"/>
<path opacity="0.79" d="M584.671 481.914C599.715 481.914 611.911 469.718 611.911 454.674C611.911 439.63 599.715 427.434 584.671 427.434C569.626 427.434 557.431 439.63 557.431 454.674C557.431 469.718 569.626 481.914 584.671 481.914Z" stroke="#5178A6" stroke-width="2.7727" stroke-miterlimit="10"/>
<path opacity="0.79" d="M584.671 475.414C596.125 475.414 605.411 466.128 605.411 454.674C605.411 443.219 596.125 433.934 584.671 433.934C573.216 433.934 563.931 443.219 563.931 454.674C563.931 466.128 573.216 475.414 584.671 475.414Z" stroke="#5178A6" stroke-width="3" stroke-miterlimit="10"/>
</g>
<g opacity="0.89">
<g opacity="0.89">
<path opacity="0.89" d="M315.511 494.744C360.191 494.744 396.411 458.523 396.411 413.844C396.411 369.164 360.191 332.944 315.511 332.944C270.831 332.944 234.611 369.164 234.611 413.844C234.611 458.523 270.831 494.744 315.511 494.744Z" stroke="#5178A6" stroke-width="0.8127" stroke-linecap="round" stroke-linejoin="round"/>
</g>
<g opacity="0.89">
<path opacity="0.89" d="M315.511 488.844C356.932 488.844 390.511 455.265 390.511 413.844C390.511 372.422 356.932 338.844 315.511 338.844C274.089 338.844 240.511 372.422 240.511 413.844C240.511 455.265 274.089 488.844 315.511 488.844Z" stroke="#5178A6" stroke-width="0.9493" stroke-linecap="round" stroke-linejoin="round"/>
</g>
<g opacity="0.89">
<path opacity="0.89" d="M315.511 482.944C353.674 482.944 384.611 452.007 384.611 413.844C384.611 375.681 353.674 344.744 315.511 344.744C277.348 344.744 246.411 375.681 246.411 413.844C246.411 452.007 277.348 482.944 315.511 482.944Z" stroke="#5178A6" stroke-width="1.0859" stroke-linecap="round" stroke-linejoin="round"/>
</g>
<g opacity="0.89">
<path opacity="0.89" d="M315.511 477.044C350.415 477.044 378.711 448.748 378.711 413.844C378.711 378.939 350.415 350.644 315.511 350.644C280.606 350.644 252.311 378.939 252.311 413.844C252.311 448.748 280.606 477.044 315.511 477.044Z" stroke="#5178A6" stroke-width="1.2225" stroke-linecap="round" stroke-linejoin="round"/>
</g>
<g opacity="0.89">
<path opacity="0.89" d="M315.511 471.144C347.157 471.144 372.811 445.49 372.811 413.844C372.811 382.198 347.157 356.544 315.511 356.544C283.865 356.544 258.211 382.198 258.211 413.844C258.211 445.49 283.865 471.144 315.511 471.144Z" stroke="#5178A6" stroke-width="1.3591" stroke-linecap="round" stroke-linejoin="round"/>
</g>
<g opacity="0.89">
<path opacity="0.89" d="M315.511 465.244C343.898 465.244 366.911 442.231 366.911 413.844C366.911 385.456 343.898 362.444 315.511 362.444C287.123 362.444 264.111 385.456 264.111 413.844C264.111 442.231 287.123 465.244 315.511 465.244Z" stroke="#5178A6" stroke-width="1.4956" stroke-linecap="round" stroke-linejoin="round"/>
</g>
<g opacity="0.89">
<path opacity="0.89" d="M315.511 459.344C340.64 459.344 361.011 438.972 361.011 413.844C361.011 388.715 340.64 368.344 315.511 368.344C290.382 368.344 270.011 388.715 270.011 413.844C270.011 438.972 290.382 459.344 315.511 459.344Z" stroke="#5178A6" stroke-width="1.6322" stroke-linecap="round" stroke-linejoin="round"/>
</g>
<g opacity="0.89">
<path opacity="0.89" d="M315.511 453.444C337.381 453.444 355.111 435.714 355.111 413.844C355.111 391.973 337.381 374.244 315.511 374.244C293.64 374.244 275.911 391.973 275.911 413.844C275.911 435.714 293.64 453.444 315.511 453.444Z" stroke="#5178A6" stroke-width="1.7688" stroke-linecap="round" stroke-linejoin="round"/>
</g>
<g opacity="0.89">
<path opacity="0.89" d="M315.511 447.554C334.128 447.554 349.221 432.461 349.221 413.844C349.221 395.226 334.128 380.134 315.511 380.134C296.893 380.134 281.801 395.226 281.801 413.844C281.801 432.461 296.893 447.554 315.511 447.554Z" stroke="#5178A6" stroke-width="1.9054" stroke-linecap="round" stroke-linejoin="round"/>
</g>
<g opacity="0.89">
<path opacity="0.89" d="M315.511 441.654C330.87 441.654 343.321 429.203 343.321 413.844C343.321 398.485 330.87 386.034 315.511 386.034C300.152 386.034 287.701 398.485 287.701 413.844C287.701 429.203 300.152 441.654 315.511 441.654Z" stroke="#5178A6" stroke-width="2.042" stroke-linecap="round" stroke-linejoin="round"/>
</g>
<g opacity="0.89">
<path opacity="0.89" d="M315.511 435.754C327.611 435.754 337.421 425.944 337.421 413.844C337.421 401.743 327.611 391.934 315.511 391.934C303.41 391.934 293.601 401.743 293.601 413.844C293.601 425.944 303.41 435.754 315.511 435.754Z" stroke="#5178A6" stroke-width="2.1786" stroke-linecap="round" stroke-linejoin="round"/>
</g>
<g opacity="0.89">
<path opacity="0.89" d="M315.511 429.853C324.353 429.853 331.521 422.686 331.521 413.843C331.521 405.001 324.353 397.833 315.511 397.833C306.669 397.833 299.501 405.001 299.501 413.843C299.501 422.686 306.669 429.853 315.511 429.853Z" stroke="#5178A6" stroke-width="2.3152" stroke-linecap="round" stroke-linejoin="round"/>
</g>
</g>
<g opacity="0.81">
<g opacity="0.81">
<path opacity="0.81" d="M991.046 325.702C1049.59 267.159 1049.59 172.242 991.046 113.7C932.503 55.1566 837.586 55.1566 779.043 113.7C720.501 172.242 720.501 267.159 779.043 325.702C837.586 384.245 932.503 384.245 991.046 325.702Z" stroke="#5178A6" stroke-width="1.0531" stroke-linecap="round" stroke-linejoin="round"/>
</g>
<g opacity="0.81">
<path opacity="0.81" d="M885.051 363.874C964.679 363.874 1029.23 299.322 1029.23 219.694C1029.23 140.065 964.679 75.5137 885.051 75.5137C805.422 75.5137 740.871 140.065 740.871 219.694C740.871 299.322 805.422 363.874 885.051 363.874Z" stroke="#5178A6" stroke-width="1.1458" stroke-linecap="round" stroke-linejoin="round"/>
</g>
<g opacity="0.81">
<path opacity="0.81" d="M982.95 317.606C1037.02 263.534 1037.02 175.867 982.95 121.796C928.878 67.7244 841.211 67.7244 787.14 121.796C733.068 175.867 733.068 263.535 787.14 317.606C841.211 371.677 928.878 371.677 982.95 317.606Z" stroke="#5178A6" stroke-width="1.2385" stroke-linecap="round" stroke-linejoin="round"/>
</g>
<g opacity="0.81">
<path opacity="0.81" d="M885.051 352.424C958.355 352.424 1017.78 292.998 1017.78 219.694C1017.78 146.389 958.355 86.9636 885.051 86.9636C811.746 86.9636 752.321 146.389 752.321 219.694C752.321 292.998 811.746 352.424 885.051 352.424Z" stroke="#5178A6" stroke-width="1.3312" stroke-linecap="round" stroke-linejoin="round"/>
</g>
<g opacity="0.81">
<path opacity="0.81" d="M885.051 346.704C955.196 346.704 1012.06 289.839 1012.06 219.694C1012.06 149.548 955.196 92.6836 885.051 92.6836C814.905 92.6836 758.041 149.548 758.041 219.694C758.041 289.839 814.905 346.704 885.051 346.704Z" stroke="#5178A6" stroke-width="1.4239" stroke-linecap="round" stroke-linejoin="round"/>
</g>
<g opacity="0.81">
<path opacity="0.81" d="M885.051 340.974C952.032 340.974 1006.33 286.675 1006.33 219.694C1006.33 152.713 952.032 98.4138 885.051 98.4138C818.07 98.4138 763.771 152.713 763.771 219.694C763.771 286.675 818.07 340.974 885.051 340.974Z" stroke="#5178A6" stroke-width="1.5166" stroke-linecap="round" stroke-linejoin="round"/>
</g>
<g opacity="0.81">
<path opacity="0.81" d="M885.051 335.244C948.867 335.244 1000.6 283.51 1000.6 219.694C1000.6 155.877 948.867 104.144 885.051 104.144C821.234 104.144 769.501 155.877 769.501 219.694C769.501 283.51 821.234 335.244 885.051 335.244Z" stroke="#5178A6" stroke-width="1.6093" stroke-linecap="round" stroke-linejoin="round"/>
</g>
<g opacity="0.81">
<path opacity="0.81" d="M885.051 329.524C945.708 329.524 994.881 280.351 994.881 219.694C994.881 159.036 945.708 109.864 885.051 109.864C824.393 109.864 775.221 159.036 775.221 219.694C775.221 280.351 824.393 329.524 885.051 329.524Z" stroke="#5178A6" stroke-width="1.702" stroke-linecap="round" stroke-linejoin="round"/>
</g>
<g opacity="0.81">
<path opacity="0.81" d="M885.051 323.794C942.544 323.794 989.151 277.187 989.151 219.694C989.151 162.201 942.544 115.594 885.051 115.594C827.558 115.594 780.951 162.201 780.951 219.694C780.951 277.187 827.558 323.794 885.051 323.794Z" stroke="#5178A6" stroke-width="1.7948" stroke-linecap="round" stroke-linejoin="round"/>
</g>
<g opacity="0.81">
<path opacity="0.81" d="M885.051 318.074C939.384 318.074 983.431 274.027 983.431 219.694C983.431 165.36 939.384 121.314 885.051 121.314C830.717 121.314 786.671 165.36 786.671 219.694C786.671 274.027 830.717 318.074 885.051 318.074Z" stroke="#5178A6" stroke-width="1.8875" stroke-linecap="round" stroke-linejoin="round"/>
</g>
<g opacity="0.81">
<path opacity="0.81" d="M885.051 312.344C936.22 312.344 977.701 270.863 977.701 219.694C977.701 168.525 936.22 127.044 885.051 127.044C833.881 127.044 792.401 168.525 792.401 219.694C792.401 270.863 833.881 312.344 885.051 312.344Z" stroke="#5178A6" stroke-width="1.9802" stroke-linecap="round" stroke-linejoin="round"/>
</g>
<g opacity="0.81">
<path opacity="0.81" d="M885.051 306.614C933.055 306.614 971.971 267.698 971.971 219.694C971.971 171.689 933.055 132.774 885.051 132.774C837.046 132.774 798.131 171.689 798.131 219.694C798.131 267.698 837.046 306.614 885.051 306.614Z" stroke="#5178A6" stroke-width="2.0729" stroke-linecap="round" stroke-linejoin="round"/>
</g>
<g opacity="0.81">
<path opacity="0.81" d="M887.968 300.895C932.787 299.299 967.825 261.672 966.229 216.853C964.632 172.035 927.005 136.996 882.187 138.593C837.368 140.189 802.33 177.816 803.926 222.635C805.523 267.453 843.15 302.492 887.968 300.895Z" stroke="#5178A6" stroke-width="2.1656" stroke-linecap="round" stroke-linejoin="round"/>
</g>
<g opacity="0.81">
<path opacity="0.81" d="M885.051 295.164C926.732 295.164 960.521 261.375 960.521 219.694C960.521 178.013 926.732 144.224 885.051 144.224C843.37 144.224 809.581 178.013 809.581 219.694C809.581 261.375 843.37 295.164 885.051 295.164Z" stroke="#5178A6" stroke-width="2.2583" stroke-linecap="round" stroke-linejoin="round"/>
</g>
<g opacity="0.81">
<path opacity="0.81" d="M887.56 289.452C926.059 288.081 956.157 255.76 954.785 217.261C953.414 178.762 921.093 148.664 882.594 150.036C844.096 151.407 813.998 183.728 815.369 222.227C816.741 260.726 849.062 290.823 887.56 289.452Z" stroke="#5178A6" stroke-width="2.351" stroke-linecap="round" stroke-linejoin="round"/>
</g>
<g opacity="0.81">
<path opacity="0.81" d="M885.051 283.714C920.408 283.714 949.071 255.051 949.071 219.694C949.071 184.337 920.408 155.674 885.051 155.674C849.694 155.674 821.031 184.337 821.031 219.694C821.031 255.051 849.694 283.714 885.051 283.714Z" stroke="#5178A6" stroke-width="2.4437" stroke-linecap="round" stroke-linejoin="round"/>
</g>
<g opacity="0.81">
<path opacity="0.81" d="M887.153 277.999C919.326 276.853 944.478 249.842 943.332 217.669C942.186 185.495 915.176 160.343 883.002 161.489C850.829 162.635 825.676 189.645 826.822 221.819C827.968 253.992 854.979 279.145 887.153 277.999Z" stroke="#5178A6" stroke-width="2.5364" stroke-linecap="round" stroke-linejoin="round"/>
</g>
<g opacity="0.81">
<path opacity="0.81" d="M885.051 272.264C914.084 272.264 937.621 248.727 937.621 219.694C937.621 190.66 914.084 167.124 885.051 167.124C856.017 167.124 832.481 190.66 832.481 219.694C832.481 248.727 856.017 272.264 885.051 272.264Z" stroke="#5178A6" stroke-width="2.6292" stroke-linecap="round" stroke-linejoin="round"/>
</g>
<g opacity="0.81">
<path opacity="0.81" d="M886.745 266.556C912.598 265.635 932.81 243.93 931.889 218.076C930.968 192.223 909.263 172.011 883.41 172.932C857.556 173.853 837.344 195.558 838.265 221.411C839.186 247.265 860.891 267.477 886.745 266.556Z" stroke="#5178A6" stroke-width="2.7219" stroke-linecap="round" stroke-linejoin="round"/>
</g>
<g opacity="0.81">
<path opacity="0.81" d="M885.051 260.814C907.761 260.814 926.171 242.404 926.171 219.694C926.171 196.984 907.761 178.574 885.051 178.574C862.341 178.574 843.931 196.984 843.931 219.694C843.931 242.404 862.341 260.814 885.051 260.814Z" stroke="#5178A6" stroke-width="2.8146" stroke-linecap="round" stroke-linejoin="round"/>
</g>
<g opacity="0.81">
<path opacity="0.81" d="M886.337 255.113C905.871 254.417 921.142 238.018 920.446 218.484C919.75 198.95 903.351 183.679 883.818 184.375C864.284 185.071 849.013 201.47 849.709 221.004C850.404 240.537 866.804 255.808 886.337 255.113Z" stroke="#5178A6" stroke-width="2.9073" stroke-linecap="round" stroke-linejoin="round"/>
</g>
<g opacity="0.81">
<path opacity="0.81" d="M885.051 249.354C901.431 249.354 914.711 236.074 914.711 219.694C914.711 203.313 901.431 190.034 885.051 190.034C868.67 190.034 855.391 203.313 855.391 219.694C855.391 236.074 868.67 249.354 885.051 249.354Z" stroke="#5178A6" stroke-width="3" stroke-linecap="round" stroke-linejoin="round"/>
</g>
</g>
<g opacity="0.77">
<g opacity="0.77">
<path opacity="0.77" d="M408.861 463.904L269.361 603.404" stroke="#5178A6" stroke-width="2" stroke-miterlimit="10"/>
<path opacity="0.77" d="M416.881 463.904L277.381 603.404" stroke="#5178A6" stroke-width="2" stroke-miterlimit="10"/>
<path opacity="0.77" d="M424.891 463.904L285.391 603.404" stroke="#5178A6" stroke-width="2" stroke-miterlimit="10"/>
<path opacity="0.77" d="M432.911 463.904L293.411 603.404" stroke="#5178A6" stroke-width="2" stroke-miterlimit="10"/>
<path opacity="0.77" d="M440.931 463.904L301.431 603.404" stroke="#5178A6" stroke-width="2" stroke-miterlimit="10"/>
<path opacity="0.77" d="M448.951 463.904L309.451 603.404" stroke="#5178A6" stroke-width="2" stroke-miterlimit="10"/>
<path opacity="0.77" d="M456.961 463.904L317.461 603.404" stroke="#5178A6" stroke-width="2" stroke-miterlimit="10"/>
<path opacity="0.77" d="M464.981 463.904L325.481 603.404" stroke="#5178A6" stroke-width="2" stroke-miterlimit="10"/>
<path opacity="0.77" d="M473.001 463.904L333.501 603.404" stroke="#5178A6" stroke-width="2" stroke-miterlimit="10"/>
<path opacity="0.77" d="M481.021 463.904L341.521 603.404" stroke="#5178A6" stroke-width="2" stroke-miterlimit="10"/>
<path opacity="0.77" d="M489.031 463.904L349.531 603.404" stroke="#5178A6" stroke-width="2" stroke-miterlimit="10"/>
<path opacity="0.77" d="M497.051 463.904L357.551 603.404" stroke="#5178A6" stroke-width="2" stroke-miterlimit="10"/>
<path opacity="0.77" d="M505.071 463.904L365.571 603.404" stroke="#5178A6" stroke-width="2" stroke-miterlimit="10"/>
<path opacity="0.77" d="M513.081 463.904L373.581 603.404" stroke="#5178A6" stroke-width="2" stroke-miterlimit="10"/>
<path opacity="0.77" d="M521.101 463.904L381.601 603.404" stroke="#5178A6" stroke-width="2" stroke-miterlimit="10"/>
<path opacity="0.77" d="M529.121 463.904L389.621 603.404" stroke="#5178A6" stroke-width="2" stroke-miterlimit="10"/>
<path opacity="0.77" d="M537.141 463.904L397.641 603.404" stroke="#5178A6" stroke-width="2" stroke-miterlimit="10"/>
<path opacity="0.77" d="M545.151 463.904L405.651 603.404" stroke="#5178A6" stroke-width="2" stroke-miterlimit="10"/>
<path opacity="0.77" d="M553.171 463.904L413.671 603.404" stroke="#5178A6" stroke-width="2" stroke-miterlimit="10"/>
<path opacity="0.77" d="M561.191 463.904L421.691 603.404" stroke="#5178A6" stroke-width="2" stroke-miterlimit="10"/>
<path opacity="0.77" d="M569.201 463.904L429.701 603.404" stroke="#5178A6" stroke-width="2" stroke-miterlimit="10"/>
<path opacity="0.77" d="M577.221 463.904L437.721 603.404" stroke="#5178A6" stroke-width="2" stroke-miterlimit="10"/>
<path opacity="0.77" d="M585.241 463.904L445.741 603.404" stroke="#5178A6" stroke-width="2" stroke-miterlimit="10"/>
<path opacity="0.77" d="M593.261 463.904L453.761 603.404" stroke="#5178A6" stroke-width="2" stroke-miterlimit="10"/>
<path opacity="0.77" d="M601.271 463.904L461.771 603.404" stroke="#5178A6" stroke-width="2" stroke-miterlimit="10"/>
<path opacity="0.77" d="M609.291 463.904L469.791 603.404" stroke="#5178A6" stroke-width="2" stroke-miterlimit="10"/>
<path opacity="0.77" d="M617.311 463.904L477.811 603.404" stroke="#5178A6" stroke-width="2" stroke-miterlimit="10"/>
<path opacity="0.77" d="M625.331 463.904L485.831 603.404" stroke="#5178A6" stroke-width="2" stroke-miterlimit="10"/>
<path opacity="0.77" d="M633.341 463.904L493.841 603.404" stroke="#5178A6" stroke-width="2" stroke-miterlimit="10"/>
<path opacity="0.77" d="M641.361 463.904L501.861 603.404" stroke="#5178A6" stroke-width="2" stroke-miterlimit="10"/>
</g>
</g>
<g opacity="0.81">
<g opacity="0.81">
<path opacity="0.81" d="M793.801 561.434L462.731 892.504" stroke="#5178A6" stroke-width="2" stroke-miterlimit="10"/>
<path opacity="0.81" d="M801.721 561.434L470.651 892.504" stroke="#5178A6" stroke-width="2" stroke-miterlimit="10"/>
<path opacity="0.81" d="M809.651 561.434L478.571 892.504" stroke="#5178A6" stroke-width="2" stroke-miterlimit="10"/>
<path opacity="0.81" d="M817.571 561.434L486.501 892.504" stroke="#5178A6" stroke-width="2" stroke-miterlimit="10"/>
<path opacity="0.81" d="M825.491 561.434L494.421 892.504" stroke="#5178A6" stroke-width="2" stroke-miterlimit="10"/>
<path opacity="0.81" d="M833.421 561.434L502.341 892.504" stroke="#5178A6" stroke-width="2" stroke-miterlimit="10"/>
<path opacity="0.81" d="M841.341 561.434L510.271 892.504" stroke="#5178A6" stroke-width="2" stroke-miterlimit="10"/>
<path opacity="0.81" d="M849.261 561.434L518.191 892.504" stroke="#5178A6" stroke-width="2" stroke-miterlimit="10"/>
<path opacity="0.81" d="M857.191 561.434L526.121 892.504" stroke="#5178A6" stroke-width="2" stroke-miterlimit="10"/>
<path opacity="0.81" d="M865.111 561.434L534.041 892.504" stroke="#5178A6" stroke-width="2" stroke-miterlimit="10"/>
<path opacity="0.81" d="M873.041 561.434L541.961 892.504" stroke="#5178A6" stroke-width="2" stroke-miterlimit="10"/>
<path opacity="0.81" d="M880.961 561.434L549.891 892.504" stroke="#5178A6" stroke-width="2" stroke-miterlimit="10"/>
<path opacity="0.81" d="M888.881 561.434L557.811 892.504" stroke="#5178A6" stroke-width="2" stroke-miterlimit="10"/>
<path opacity="0.81" d="M896.811 561.434L565.731 892.504" stroke="#5178A6" stroke-width="2" stroke-miterlimit="10"/>
<path opacity="0.81" d="M904.731 561.434L573.661 892.504" stroke="#5178A6" stroke-width="2" stroke-miterlimit="10"/>
<path opacity="0.81" d="M912.651 561.434L581.581 892.504" stroke="#5178A6" stroke-width="2" stroke-miterlimit="10"/>
<path opacity="0.81" d="M920.581 561.434L589.501 892.504" stroke="#5178A6" stroke-width="2" stroke-miterlimit="10"/>
<path opacity="0.81" d="M928.501 561.434L597.431 892.504" stroke="#5178A6" stroke-width="2" stroke-miterlimit="10"/>
<path opacity="0.81" d="M936.421 561.434L605.351 892.504" stroke="#5178A6" stroke-width="2" stroke-miterlimit="10"/>
<path opacity="0.81" d="M944.351 561.434L613.281 892.504" stroke="#5178A6" stroke-width="2" stroke-miterlimit="10"/>
<path opacity="0.81" d="M952.271 561.434L621.201 892.504" stroke="#5178A6" stroke-width="2" stroke-miterlimit="10"/>
<path opacity="0.81" d="M960.201 561.434L629.121 892.504" stroke="#5178A6" stroke-width="2" stroke-miterlimit="10"/>
<path opacity="0.81" d="M968.121 561.434L637.051 892.504" stroke="#5178A6" stroke-width="2" stroke-miterlimit="10"/>
<path opacity="0.81" d="M976.041 561.434L644.971 892.504" stroke="#5178A6" stroke-width="2" stroke-miterlimit="10"/>
<path opacity="0.81" d="M983.971 561.434L652.891 892.504" stroke="#5178A6" stroke-width="2" stroke-miterlimit="10"/>
<path opacity="0.81" d="M991.891 561.434L660.821 892.504" stroke="#5178A6" stroke-width="2" stroke-miterlimit="10"/>
<path opacity="0.81" d="M999.811 561.434L668.741 892.504" stroke="#5178A6" stroke-width="2" stroke-miterlimit="10"/>
<path opacity="0.81" d="M1007.74 561.434L676.661 892.504" stroke="#5178A6" stroke-width="2" stroke-miterlimit="10"/>
<path opacity="0.81" d="M1015.66 561.434L684.591 892.504" stroke="#5178A6" stroke-width="2" stroke-miterlimit="10"/>
<path opacity="0.81" d="M1023.58 561.434L692.511 892.504" stroke="#5178A6" stroke-width="2" stroke-miterlimit="10"/>
<path opacity="0.81" d="M1031.51 561.434L700.441 892.504" stroke="#5178A6" stroke-width="2" stroke-miterlimit="10"/>
<path opacity="0.81" d="M1039.43 561.434L708.361 892.504" stroke="#5178A6" stroke-width="2" stroke-miterlimit="10"/>
<path opacity="0.81" d="M1047.36 561.434L716.281 892.504" stroke="#5178A6" stroke-width="2" stroke-miterlimit="10"/>
<path opacity="0.81" d="M1055.28 561.434L724.211 892.504" stroke="#5178A6" stroke-width="2" stroke-miterlimit="10"/>
<path opacity="0.81" d="M1063.2 561.434L732.131 892.504" stroke="#5178A6" stroke-width="2" stroke-miterlimit="10"/>
<path opacity="0.81" d="M1071.13 561.434L740.051 892.504" stroke="#5178A6" stroke-width="2" stroke-miterlimit="10"/>
<path opacity="0.81" d="M1079.05 561.434L747.981 892.504" stroke="#5178A6" stroke-width="2" stroke-miterlimit="10"/>
<path opacity="0.81" d="M1086.97 561.434L755.901 892.504" stroke="#5178A6" stroke-width="2" stroke-miterlimit="10"/>
<path opacity="0.81" d="M1094.9 561.434L763.821 892.504" stroke="#5178A6" stroke-width="2" stroke-miterlimit="10"/>
<path opacity="0.81" d="M1102.82 561.434L771.751 892.504" stroke="#5178A6" stroke-width="2" stroke-miterlimit="10"/>
<path opacity="0.81" d="M1110.74 561.434L779.671 892.504" stroke="#5178A6" stroke-width="2" stroke-miterlimit="10"/>
<path opacity="0.81" d="M1118.67 561.434L787.601 892.504" stroke="#5178A6" stroke-width="2" stroke-miterlimit="10"/>
<path opacity="0.81" d="M1126.59 561.434L795.521 892.504" stroke="#5178A6" stroke-width="2" stroke-miterlimit="10"/>
<path opacity="0.81" d="M1134.52 561.434L803.441 892.504" stroke="#5178A6" stroke-width="2" stroke-miterlimit="10"/>
<path opacity="0.81" d="M1142.44 561.434L811.371 892.504" stroke="#5178A6" stroke-width="2" stroke-miterlimit="10"/>
</g>
</g>
<g opacity="0.72">
<path opacity="0.5" d="M901.644 225.954L744.668 382.93L901.644 539.907L1058.62 382.93L901.644 225.954Z" stroke="#9DADE3" stroke-width="50" stroke-miterlimit="10"/>
<path opacity="0.5" d="M526.644 598.749L369.668 755.725L526.644 912.701L683.62 755.725L526.644 598.749Z" stroke="#9DADE3" stroke-width="30" stroke-miterlimit="10"/>
</g>
<path opacity="0.5" d="M231.352 554.244C246.262 569.154 246.262 593.334 231.352 608.254L65.1925 774.414C50.2825 789.324 26.1025 789.324 11.1825 774.414C-3.7275 759.504 -3.7275 735.324 11.1825 720.404L177.342 554.244C192.262 539.334 216.442 539.334 231.352 554.244Z" fill="url(#paint0_linear_43:1006)"/>
<path opacity="0.5" d="M405.573 539.044C421.783 555.254 421.783 581.524 405.573 597.734L234.283 769.014C218.073 785.224 191.803 785.224 175.593 769.014C159.383 752.804 159.383 726.534 175.593 710.324L346.873 539.044C363.083 522.834 389.363 522.834 405.573 539.044Z" fill="url(#paint1_linear_43:1006)"/>
<path opacity="0.5" d="M399.343 651.804C407.063 659.524 407.063 672.034 399.343 679.744L321.703 757.384C313.983 765.104 301.473 765.104 293.763 757.384C286.043 749.664 286.043 737.154 293.763 729.444L371.403 651.804C379.123 644.094 391.633 644.094 399.343 651.804Z" fill="url(#paint2_linear_43:1006)"/>
<path opacity="0.5" d="M335.692 610.254C346.012 620.584 346.012 637.324 335.692 647.644L181.402 801.934C171.072 812.264 154.332 812.264 144.012 801.934C133.692 791.604 133.692 774.864 144.012 764.544L298.302 610.254C308.622 599.924 325.362 599.924 335.692 610.254Z" fill="url(#paint3_linear_43:1006)"/>
<path opacity="0.5" d="M732.493 302.454C724.773 294.734 724.773 282.224 732.493 274.514L810.133 196.874C817.853 189.154 830.363 189.154 838.073 196.874C845.793 204.594 845.793 217.104 838.073 224.814L760.433 302.454C752.723 310.164 740.213 310.164 732.493 302.454Z" fill="url(#paint4_linear_43:1006)"/>
<path opacity="0.5" d="M858.903 445.754C851.183 438.034 851.183 425.524 858.903 417.814L936.543 340.174C944.263 332.454 956.773 332.454 964.483 340.174C972.203 347.894 972.203 360.404 964.483 368.114L886.843 445.754C879.123 453.474 866.613 453.474 858.903 445.754Z" fill="url(#paint5_linear_43:1006)"/>
<g opacity="0.49">
<path opacity="0.49" d="M316.463 302.094C318.716 302.094 320.543 300.267 320.543 298.014C320.543 295.76 318.716 293.934 316.463 293.934C314.209 293.934 312.383 295.76 312.383 298.014C312.383 300.267 314.209 302.094 316.463 302.094Z" stroke="#9DADE3" stroke-width="2" stroke-miterlimit="10" stroke-linecap="round" stroke-linejoin="round"/>
<path opacity="0.49" d="M595.603 575.054C595.603 577.304 593.773 579.134 591.523 579.134C589.273 579.134 587.443 577.304 587.443 575.054C587.443 572.804 589.273 570.974 591.523 570.974C593.773 570.974 595.603 572.804 595.603 575.054Z" stroke="#9DADE3" stroke-width="2" stroke-miterlimit="10" stroke-linecap="round" stroke-linejoin="round"/>
<path opacity="0.49" d="M468.023 373.484C468.023 375.734 466.193 377.564 463.943 377.564C461.693 377.564 459.863 375.734 459.863 373.484C459.863 371.234 461.693 369.404 463.943 369.404C466.203 369.404 468.023 371.224 468.023 373.484Z" stroke="#9DADE3" stroke-width="2" stroke-miterlimit="10" stroke-linecap="round" stroke-linejoin="round"/>
<path opacity="0.49" d="M181.263 506.413C181.263 508.663 179.433 510.493 177.183 510.493C174.933 510.493 173.103 508.663 173.103 506.413C173.103 504.163 174.933 502.333 177.183 502.333C179.443 502.333 181.263 504.163 181.263 506.413Z" stroke="#9DADE3" stroke-width="2" stroke-miterlimit="10" stroke-linecap="round" stroke-linejoin="round"/>
<path opacity="0.49" d="M222.563 386.854C222.563 389.104 220.733 390.934 218.483 390.934C216.233 390.934 214.403 389.104 214.403 386.854C214.403 384.604 216.233 382.774 218.483 382.774C220.733 382.774 222.563 384.604 222.563 386.854Z" stroke="#9DADE3" stroke-width="2" stroke-miterlimit="10" stroke-linecap="round" stroke-linejoin="round"/>
<g opacity="0.49">
<path opacity="0.49" d="M544.183 332.964V340.104" stroke="#9DADE3" stroke-width="2" stroke-miterlimit="10" stroke-linecap="round" stroke-linejoin="round"/>
<path opacity="0.49" d="M547.753 336.534H540.623" stroke="#9DADE3" stroke-width="2" stroke-miterlimit="10" stroke-linecap="round" stroke-linejoin="round"/>
</g>
<g opacity="0.49">
<path opacity="0.49" d="M844.223 571.494V578.624" stroke="#9DADE3" stroke-width="2" stroke-miterlimit="10" stroke-linecap="round" stroke-linejoin="round"/>
<path opacity="0.49" d="M847.793 575.054H840.663" stroke="#9DADE3" stroke-width="2" stroke-miterlimit="10" stroke-linecap="round" stroke-linejoin="round"/>
</g>
<g opacity="0.49">
<path opacity="0.49" d="M340.933 506.894V514.024" stroke="#9DADE3" stroke-width="2" stroke-miterlimit="10" stroke-linecap="round" stroke-linejoin="round"/>
<path opacity="0.49" d="M344.503 510.454H337.373" stroke="#9DADE3" stroke-width="2" stroke-miterlimit="10" stroke-linecap="round" stroke-linejoin="round"/>
</g>
<g opacity="0.49">
<g opacity="0.49">
<path opacity="0.49" d="M705.573 656.774V663.904" stroke="#9DADE3" stroke-width="2" stroke-miterlimit="10" stroke-linecap="round" stroke-linejoin="round"/>
<path opacity="0.49" d="M709.133 660.334H702.003" stroke="#9DADE3" stroke-width="2" stroke-miterlimit="10" stroke-linecap="round" stroke-linejoin="round"/>
</g>
<g opacity="0.49">
<path opacity="0.49" d="M684.013 656.774V663.904" stroke="#9DADE3" stroke-width="2" stroke-miterlimit="10" stroke-linecap="round" stroke-linejoin="round"/>
<path opacity="0.49" d="M687.573 660.334H680.443" stroke="#9DADE3" stroke-width="2" stroke-miterlimit="10" stroke-linecap="round" stroke-linejoin="round"/>
</g>
<g opacity="0.49">
<path opacity="0.49" d="M662.453 656.774V663.904" stroke="#9DADE3" stroke-width="2" stroke-miterlimit="10" stroke-linecap="round" stroke-linejoin="round"/>
<path opacity="0.49" d="M666.013 660.334H658.883" stroke="#9DADE3" stroke-width="2" stroke-miterlimit="10" stroke-linecap="round" stroke-linejoin="round"/>
</g>
</g>
<g opacity="0.49">
<g opacity="0.49">
<path opacity="0.49" d="M222.562 337.774V344.904" stroke="#9DADE3" stroke-width="2" stroke-miterlimit="10" stroke-linecap="round" stroke-linejoin="round"/>
<path opacity="0.49" d="M226.123 341.344H218.993" stroke="#9DADE3" stroke-width="2" stroke-miterlimit="10" stroke-linecap="round" stroke-linejoin="round"/>
</g>
<g opacity="0.49">
<path opacity="0.49" d="M201.003 337.774V344.904" stroke="#9DADE3" stroke-width="2" stroke-miterlimit="10" stroke-linecap="round" stroke-linejoin="round"/>
<path opacity="0.49" d="M204.573 341.344H197.433" stroke="#9DADE3" stroke-width="2" stroke-miterlimit="10" stroke-linecap="round" stroke-linejoin="round"/>
</g>
<g opacity="0.49">
<path opacity="0.49" d="M179.443 337.774V344.904" stroke="#9DADE3" stroke-width="2" stroke-miterlimit="10" stroke-linecap="round" stroke-linejoin="round"/>
<path opacity="0.49" d="M183.013 341.344H175.883" stroke="#9DADE3" stroke-width="2" stroke-miterlimit="10" stroke-linecap="round" stroke-linejoin="round"/>
</g>
</g>
<path opacity="0.49" d="M425.723 486.274L431.273 476.664H420.173L425.723 486.274Z" stroke="#9DADE3" stroke-width="2" stroke-miterlimit="10" stroke-linecap="round" stroke-linejoin="round"/>
<path opacity="0.49" d="M691.143 340.104L685.593 349.714H696.693L691.143 340.104Z" stroke="#9DADE3" stroke-width="2" stroke-miterlimit="10" stroke-linecap="round" stroke-linejoin="round"/>
<path opacity="0.49" d="M417.103 631.864C419.523 629.444 423.763 633.684 426.183 631.264C428.603 628.844 424.363 624.604 426.783 622.184C429.203 619.764 433.443 624.004 435.863 621.584C438.283 619.164 434.043 614.924 436.453 612.504C438.873 610.084 443.113 614.324 445.533 611.904C447.953 609.484 443.713 605.244 446.133 602.814C448.553 600.394 452.793 604.634 455.223 602.214" stroke="#9DADE3" stroke-width="2" stroke-miterlimit="10" stroke-linecap="round" stroke-linejoin="round"/>
<path opacity="0.49" d="M627.893 612.094C630.313 609.674 634.553 613.914 636.973 611.494C639.393 609.074 635.153 604.834 637.573 602.414C639.993 599.994 644.233 604.234 646.653 601.814C649.073 599.394 644.833 595.154 647.243 592.734C649.663 590.314 653.903 594.554 656.323 592.134C658.743 589.714 654.503 585.474 656.923 583.044C659.343 580.624 663.583 584.864 666.013 582.444" stroke="#9DADE3" stroke-width="2" stroke-miterlimit="10" stroke-linecap="round" stroke-linejoin="round"/>
<path opacity="0.49" d="M639.823 337.594C642.243 335.174 646.483 339.414 648.903 336.994C651.323 334.574 647.083 330.334 649.503 327.914C651.923 325.494 656.163 329.734 658.583 327.314C661.003 324.894 656.762 320.654 659.172 318.234C661.592 315.814 665.833 320.054 668.253 317.634C670.673 315.214 666.433 310.974 668.853 308.544C671.273 306.124 675.513 310.364 677.943 307.944" stroke="#9DADE3" stroke-width="2" stroke-miterlimit="10" stroke-linecap="round" stroke-linejoin="round"/>
</g>
<defs>
<linearGradient id="paint0_linear_43:1006" x1="231.358" y1="554.247" x2="11.1882" y2="774.416" gradientUnits="userSpaceOnUse">
<stop stop-color="white"/>
<stop offset="1" stop-opacity="0"/>
</linearGradient>
<linearGradient id="paint1_linear_43:1006" x1="405.568" y1="539.041" x2="175.596" y2="769.013" gradientUnits="userSpaceOnUse">
<stop stop-color="white"/>
<stop offset="1" stop-opacity="0"/>
</linearGradient>
<linearGradient id="paint2_linear_43:1006" x1="399.346" y1="651.806" x2="293.76" y2="757.392" gradientUnits="userSpaceOnUse">
<stop stop-color="white"/>
<stop offset="1" stop-opacity="0"/>
</linearGradient>
<linearGradient id="paint3_linear_43:1006" x1="348.414" y1="597.532" x2="262.194" y2="683.752" gradientUnits="userSpaceOnUse">
<stop stop-color="white"/>
<stop offset="1" stop-opacity="0"/>
</linearGradient>
<linearGradient id="paint4_linear_43:1006" x1="732.492" y1="302.449" x2="838.078" y2="196.863" gradientUnits="userSpaceOnUse">
<stop stop-color="white"/>
<stop offset="1" stop-opacity="0"/>
</linearGradient>
<linearGradient id="paint5_linear_43:1006" x1="858.898" y1="445.752" x2="964.483" y2="340.166" gradientUnits="userSpaceOnUse">
<stop stop-color="white"/>
<stop offset="1" stop-opacity="0"/>
</linearGradient>
</defs>
</svg>
